<mxfile host="65bd71144e">
    <diagram id="PTHDcYQZStmCuvmhch8p" name="Page-1">
        <mxGraphModel dx="338" dy="256" grid="0" gridSize="10" guides="1" tooltips="1" connect="1" arrows="1" fold="1" page="1" pageScale="1" pageWidth="1654" pageHeight="2336" background="#ffffff" math="0" shadow="0">
            <root>
                <mxCell id="0"/>
                <mxCell id="1" parent="0"/>
                <mxCell id="3" value="&lt;font face=&quot;Verdana&quot;&gt;Usuario&lt;/font&gt;" style="whiteSpace=wrap;html=1;align=center;sketch=0;hachureGap=4;jiggle=2;curveFitting=1;fontFamily=Architects Daughter;fontSource=https%3A%2F%2Ffonts.googleapis.com%2Fcss%3Ffamily%3DArchitects%2BDaughter;fontSize=20;fillColor=#f5f5f5;fontColor=#333333;strokeColor=#666666;" parent="1" vertex="1">
                    <mxGeometry x="133" y="220.1" width="100" height="40" as="geometry"/>
                </mxCell>
                <mxCell id="4" value="&lt;font face=&quot;Verdana&quot;&gt;U-ID&lt;/font&gt;" style="ellipse;whiteSpace=wrap;html=1;align=center;fontStyle=4;sketch=0;hachureGap=4;jiggle=2;curveFitting=1;fontFamily=Architects Daughter;fontSource=https%3A%2F%2Ffonts.googleapis.com%2Fcss%3Ffamily%3DArchitects%2BDaughter;fontSize=20;fillColor=#f5f5f5;fontColor=#333333;strokeColor=#666666;" parent="1" vertex="1">
                    <mxGeometry x="63" y="150.1" width="100" height="40" as="geometry"/>
                </mxCell>
                <mxCell id="5" value="" style="endArrow=none;html=1;rounded=0;hachureGap=4;fontFamily=Architects Daughter;fontSource=https%3A%2F%2Ffonts.googleapis.com%2Fcss%3Ffamily%3DArchitects%2BDaughter;fontSize=16;entryX=0.5;entryY=1;entryDx=0;entryDy=0;exitX=0.25;exitY=0;exitDx=0;exitDy=0;strokeColor=#030303;" parent="1" source="3" target="4" edge="1">
                    <mxGeometry relative="1" as="geometry">
                        <mxPoint x="213" y="220.1" as="sourcePoint"/>
                        <mxPoint x="233" y="230.1" as="targetPoint"/>
                    </mxGeometry>
                </mxCell>
                <mxCell id="8" value="&lt;font face=&quot;Verdana&quot;&gt;Email&lt;/font&gt;" style="ellipse;whiteSpace=wrap;html=1;align=center;sketch=0;hachureGap=4;jiggle=2;curveFitting=1;fontFamily=Architects Daughter;fontSource=https%3A%2F%2Ffonts.googleapis.com%2Fcss%3Ffamily%3DArchitects%2BDaughter;fontSize=20;fillColor=#f5f5f5;fontColor=#333333;strokeColor=#666666;" parent="1" vertex="1">
                    <mxGeometry x="193" y="150.1" width="100" height="40" as="geometry"/>
                </mxCell>
                <mxCell id="10" value="" style="endArrow=none;html=1;rounded=0;hachureGap=4;fontFamily=Architects Daughter;fontSource=https%3A%2F%2Ffonts.googleapis.com%2Fcss%3Ffamily%3DArchitects%2BDaughter;fontSize=16;entryX=0.5;entryY=1;entryDx=0;entryDy=0;exitX=0.75;exitY=0;exitDx=0;exitDy=0;strokeColor=#030303;" parent="1" source="3" target="8" edge="1">
                    <mxGeometry relative="1" as="geometry">
                        <mxPoint x="313" y="270.1" as="sourcePoint"/>
                        <mxPoint x="283" y="220.1" as="targetPoint"/>
                    </mxGeometry>
                </mxCell>
                <mxCell id="11" value="&lt;font face=&quot;Verdana&quot;&gt;Rol&lt;/font&gt;" style="whiteSpace=wrap;html=1;align=center;sketch=0;hachureGap=4;jiggle=2;curveFitting=1;fontFamily=Architects Daughter;fontSource=https%3A%2F%2Ffonts.googleapis.com%2Fcss%3Ffamily%3DArchitects%2BDaughter;fontSize=20;fillColor=#f5f5f5;fontColor=#333333;strokeColor=#666666;" parent="1" vertex="1">
                    <mxGeometry x="507" y="220.1" width="100" height="40" as="geometry"/>
                </mxCell>
                <mxCell id="12" value="&lt;font face=&quot;Verdana&quot;&gt;R-ID&lt;/font&gt;" style="ellipse;whiteSpace=wrap;html=1;align=center;fontStyle=4;sketch=0;hachureGap=4;jiggle=2;curveFitting=1;fontFamily=Architects Daughter;fontSource=https%3A%2F%2Ffonts.googleapis.com%2Fcss%3Ffamily%3DArchitects%2BDaughter;fontSize=20;fillColor=#f5f5f5;fontColor=#333333;strokeColor=#666666;" parent="1" vertex="1">
                    <mxGeometry x="440" y="151.1" width="100" height="40" as="geometry"/>
                </mxCell>
                <mxCell id="13" value="" style="endArrow=none;html=1;rounded=0;hachureGap=4;fontFamily=Architects Daughter;fontSource=https%3A%2F%2Ffonts.googleapis.com%2Fcss%3Ffamily%3DArchitects%2BDaughter;fontSize=16;entryX=0.5;entryY=1;entryDx=0;entryDy=0;exitX=0.25;exitY=0;exitDx=0;exitDy=0;strokeColor=#030303;" parent="1" source="11" target="12" edge="1">
                    <mxGeometry relative="1" as="geometry">
                        <mxPoint x="560" y="221.09999999999988" as="sourcePoint"/>
                        <mxPoint x="610" y="231.1" as="targetPoint"/>
                    </mxGeometry>
                </mxCell>
                <mxCell id="14" value="&lt;font face=&quot;Verdana&quot;&gt;Tipo&lt;/font&gt;" style="ellipse;whiteSpace=wrap;html=1;align=center;sketch=0;hachureGap=4;jiggle=2;curveFitting=1;fontFamily=Architects Daughter;fontSource=https%3A%2F%2Ffonts.googleapis.com%2Fcss%3Ffamily%3DArchitects%2BDaughter;fontSize=20;fillColor=#f5f5f5;fontColor=#333333;strokeColor=#666666;" parent="1" vertex="1">
                    <mxGeometry x="570" y="151.1" width="100" height="40" as="geometry"/>
                </mxCell>
                <mxCell id="15" value="" style="endArrow=none;html=1;rounded=0;hachureGap=4;fontFamily=Architects Daughter;fontSource=https%3A%2F%2Ffonts.googleapis.com%2Fcss%3Ffamily%3DArchitects%2BDaughter;fontSize=16;entryX=0.5;entryY=1;entryDx=0;entryDy=0;exitX=0.75;exitY=0;exitDx=0;exitDy=0;strokeColor=#030303;" parent="1" source="11" target="14" edge="1">
                    <mxGeometry relative="1" as="geometry">
                        <mxPoint x="560" y="221.09999999999988" as="sourcePoint"/>
                        <mxPoint x="660" y="221.1" as="targetPoint"/>
                    </mxGeometry>
                </mxCell>
                <mxCell id="16" value="tiene" style="shape=rhombus;perimeter=rhombusPerimeter;whiteSpace=wrap;html=1;align=center;sketch=0;hachureGap=4;jiggle=2;curveFitting=1;fontFamily=Architects Daughter;fontSource=https%3A%2F%2Ffonts.googleapis.com%2Fcss%3Ffamily%3DArchitects%2BDaughter;fontSize=20;fillColor=#f5f5f5;fontColor=#333333;strokeColor=#666666;" parent="1" vertex="1">
                    <mxGeometry x="307" y="214.6" width="99" height="51" as="geometry"/>
                </mxCell>
                <mxCell id="22" value="" style="endArrow=none;html=1;rounded=0;sketch=0;hachureGap=4;jiggle=2;curveFitting=1;strokeColor=#030303;fontFamily=Architects Daughter;fontSource=https%3A%2F%2Ffonts.googleapis.com%2Fcss%3Ffamily%3DArchitects%2BDaughter;fontSize=16;fontColor=#000000;entryX=0;entryY=0.5;entryDx=0;entryDy=0;" parent="1" target="16" edge="1">
                    <mxGeometry relative="1" as="geometry">
                        <mxPoint x="235" y="239.51" as="sourcePoint"/>
                        <mxPoint x="348" y="239.51" as="targetPoint"/>
                    </mxGeometry>
                </mxCell>
                <mxCell id="23" value="&lt;font face=&quot;Verdana&quot;&gt;1,*&lt;/font&gt;" style="resizable=0;html=1;align=left;verticalAlign=bottom;sketch=0;hachureGap=4;jiggle=2;curveFitting=1;fontFamily=Architects Daughter;fontSource=https%3A%2F%2Ffonts.googleapis.com%2Fcss%3Ffamily%3DArchitects%2BDaughter;fontSize=20;fontColor=#000000;fillColor=#1D1D1D;" parent="22" connectable="0" vertex="1">
                    <mxGeometry x="-1" relative="1" as="geometry"/>
                </mxCell>
                <mxCell id="24" value="" style="resizable=0;html=1;align=right;verticalAlign=bottom;sketch=0;hachureGap=4;jiggle=2;curveFitting=1;fontFamily=Architects Daughter;fontSource=https%3A%2F%2Ffonts.googleapis.com%2Fcss%3Ffamily%3DArchitects%2BDaughter;fontSize=20;fontColor=#000000;fillColor=#1D1D1D;" parent="22" connectable="0" vertex="1">
                    <mxGeometry x="1" relative="1" as="geometry"/>
                </mxCell>
                <mxCell id="25" value="" style="endArrow=none;html=1;rounded=0;sketch=0;hachureGap=4;jiggle=2;curveFitting=1;strokeColor=#030303;fontFamily=Architects Daughter;fontSource=https%3A%2F%2Ffonts.googleapis.com%2Fcss%3Ffamily%3DArchitects%2BDaughter;fontSize=16;fontColor=#000000;entryX=0;entryY=0.5;entryDx=0;entryDy=0;exitX=1;exitY=0.5;exitDx=0;exitDy=0;" parent="1" source="16" target="11" edge="1">
                    <mxGeometry relative="1" as="geometry">
                        <mxPoint x="450" y="240" as="sourcePoint"/>
                        <mxPoint x="568" y="240.1" as="targetPoint"/>
                    </mxGeometry>
                </mxCell>
                <mxCell id="26" value="" style="resizable=0;html=1;align=left;verticalAlign=bottom;sketch=0;hachureGap=4;jiggle=2;curveFitting=1;fontFamily=Architects Daughter;fontSource=https%3A%2F%2Ffonts.googleapis.com%2Fcss%3Ffamily%3DArchitects%2BDaughter;fontSize=20;fontColor=#000000;fillColor=#1D1D1D;" parent="25" connectable="0" vertex="1">
                    <mxGeometry x="-1" relative="1" as="geometry"/>
                </mxCell>
                <mxCell id="27" value="" style="resizable=0;html=1;align=right;verticalAlign=bottom;sketch=0;hachureGap=4;jiggle=2;curveFitting=1;fontFamily=Architects Daughter;fontSource=https%3A%2F%2Ffonts.googleapis.com%2Fcss%3Ffamily%3DArchitects%2BDaughter;fontSize=20;fontColor=#000000;fillColor=#1D1D1D;" parent="25" connectable="0" vertex="1">
                    <mxGeometry x="1" relative="1" as="geometry">
                        <mxPoint x="-41" y="-1" as="offset"/>
                    </mxGeometry>
                </mxCell>
                <mxCell id="28" value="1,1" style="text;html=1;align=center;verticalAlign=middle;resizable=0;points=[];autosize=1;strokeColor=none;fillColor=none;fontSize=20;fontFamily=Verdana;fontColor=#000000;sketch=1;hachureGap=4;jiggle=2;curveFitting=1;fontSource=https%3A%2F%2Ffonts.googleapis.com%2Fcss%3Ffamily%3DArchitects%2BDaughter;" parent="1" vertex="1">
                    <mxGeometry x="468.5" y="209.1" width="43" height="36" as="geometry"/>
                </mxCell>
                <mxCell id="33" value="&lt;font face=&quot;Verdana&quot;&gt;Persona&lt;/font&gt;" style="whiteSpace=wrap;html=1;align=center;sketch=0;hachureGap=4;jiggle=2;curveFitting=1;fontFamily=Architects Daughter;fontSource=https%3A%2F%2Ffonts.googleapis.com%2Fcss%3Ffamily%3DArchitects%2BDaughter;fontSize=20;fillColor=#f5f5f5;fontColor=#333333;strokeColor=#666666;" parent="1" vertex="1">
                    <mxGeometry x="813" y="165.5" width="100" height="40" as="geometry"/>
                </mxCell>
                <mxCell id="34" value="&lt;font face=&quot;Verdana&quot;&gt;CI&lt;/font&gt;" style="ellipse;whiteSpace=wrap;html=1;align=center;fontStyle=4;sketch=0;hachureGap=4;jiggle=2;curveFitting=1;fontFamily=Architects Daughter;fontSource=https%3A%2F%2Ffonts.googleapis.com%2Fcss%3Ffamily%3DArchitects%2BDaughter;fontSize=20;fillColor=#f5f5f5;fontColor=#333333;strokeColor=#666666;" parent="1" vertex="1">
                    <mxGeometry x="748" y="98.5" width="100" height="40" as="geometry"/>
                </mxCell>
                <mxCell id="35" value="&lt;font face=&quot;Verdana&quot;&gt;Apellidos&lt;/font&gt;" style="ellipse;whiteSpace=wrap;html=1;align=center;sketch=0;hachureGap=4;jiggle=2;curveFitting=1;fontFamily=Architects Daughter;fontSource=https%3A%2F%2Ffonts.googleapis.com%2Fcss%3Ffamily%3DArchitects%2BDaughter;fontSize=20;fillColor=#f5f5f5;fontColor=#333333;strokeColor=#666666;" parent="1" vertex="1">
                    <mxGeometry x="873" y="229.5" width="100" height="40" as="geometry"/>
                </mxCell>
                <mxCell id="36" value="&lt;font face=&quot;Verdana&quot;&gt;Edad&lt;/font&gt;" style="ellipse;whiteSpace=wrap;html=1;align=center;sketch=0;hachureGap=4;jiggle=2;curveFitting=1;fontFamily=Architects Daughter;fontSource=https%3A%2F%2Ffonts.googleapis.com%2Fcss%3Ffamily%3DArchitects%2BDaughter;fontSize=20;fillColor=#f5f5f5;fontColor=#333333;strokeColor=#666666;" parent="1" vertex="1">
                    <mxGeometry x="873" y="98.5" width="100" height="40" as="geometry"/>
                </mxCell>
                <mxCell id="37" value="&lt;font face=&quot;Verdana&quot;&gt;Nombre-P&lt;/font&gt;" style="ellipse;whiteSpace=wrap;html=1;align=center;sketch=0;hachureGap=4;jiggle=2;curveFitting=1;fontFamily=Architects Daughter;fontSource=https%3A%2F%2Ffonts.googleapis.com%2Fcss%3Ffamily%3DArchitects%2BDaughter;fontSize=20;fillColor=#f5f5f5;fontColor=#333333;strokeColor=#666666;" parent="1" vertex="1">
                    <mxGeometry x="743" y="232.5" width="100" height="40" as="geometry"/>
                </mxCell>
                <mxCell id="38" value="" style="endArrow=none;html=1;rounded=0;hachureGap=4;fontFamily=Architects Daughter;fontSource=https%3A%2F%2Ffonts.googleapis.com%2Fcss%3Ffamily%3DArchitects%2BDaughter;fontSize=16;entryX=0.5;entryY=1;entryDx=0;entryDy=0;exitX=0.25;exitY=0;exitDx=0;exitDy=0;strokeColor=#030303;" parent="1" source="33" target="34" edge="1">
                    <mxGeometry relative="1" as="geometry">
                        <mxPoint x="878" y="153.5" as="sourcePoint"/>
                        <mxPoint x="808" y="123.5" as="targetPoint"/>
                    </mxGeometry>
                </mxCell>
                <mxCell id="39" value="" style="endArrow=none;html=1;rounded=0;hachureGap=4;fontFamily=Architects Daughter;fontSource=https%3A%2F%2Ffonts.googleapis.com%2Fcss%3Ffamily%3DArchitects%2BDaughter;fontSize=16;entryX=0.5;entryY=1;entryDx=0;entryDy=0;strokeColor=#030303;exitX=0.75;exitY=0;exitDx=0;exitDy=0;" parent="1" source="33" target="36" edge="1">
                    <mxGeometry relative="1" as="geometry">
                        <mxPoint x="867" y="153.5" as="sourcePoint"/>
                        <mxPoint x="808" y="148.5" as="targetPoint"/>
                    </mxGeometry>
                </mxCell>
                <mxCell id="40" value="" style="endArrow=none;html=1;rounded=0;hachureGap=4;fontFamily=Architects Daughter;fontSource=https%3A%2F%2Ffonts.googleapis.com%2Fcss%3Ffamily%3DArchitects%2BDaughter;fontSize=16;entryX=0.5;entryY=0;entryDx=0;entryDy=0;exitX=0.25;exitY=1;exitDx=0;exitDy=0;strokeColor=#030303;" parent="1" source="33" target="37" edge="1">
                    <mxGeometry relative="1" as="geometry">
                        <mxPoint x="873" y="175.5" as="sourcePoint"/>
                        <mxPoint x="808" y="148.5" as="targetPoint"/>
                    </mxGeometry>
                </mxCell>
                <mxCell id="41" value="" style="endArrow=none;html=1;rounded=0;hachureGap=4;fontFamily=Architects Daughter;fontSource=https%3A%2F%2Ffonts.googleapis.com%2Fcss%3Ffamily%3DArchitects%2BDaughter;fontSize=16;entryX=0.5;entryY=0;entryDx=0;entryDy=0;exitX=0.75;exitY=1;exitDx=0;exitDy=0;strokeColor=#030303;" parent="1" source="33" target="35" edge="1">
                    <mxGeometry relative="1" as="geometry">
                        <mxPoint x="848" y="215.5" as="sourcePoint"/>
                        <mxPoint x="803" y="242.5" as="targetPoint"/>
                    </mxGeometry>
                </mxCell>
                <mxCell id="42" value="Tipo" style="shape=hexagon;perimeter=hexagonPerimeter2;whiteSpace=wrap;html=1;fixedSize=1;sketch=0;hachureGap=4;jiggle=2;curveFitting=1;fontFamily=Verdana;fontSize=20;fontColor=#333333;fillColor=#f5f5f5;strokeColor=#666666;" parent="1" vertex="1">
                    <mxGeometry x="957.5" y="165.5" width="72" height="39" as="geometry"/>
                </mxCell>
                <mxCell id="43" value="" style="endArrow=none;html=1;rounded=0;hachureGap=4;fontFamily=Architects Daughter;fontSource=https%3A%2F%2Ffonts.googleapis.com%2Fcss%3Ffamily%3DArchitects%2BDaughter;fontSize=16;entryX=0;entryY=0.5;entryDx=0;entryDy=0;strokeColor=#030303;exitX=1;exitY=0.5;exitDx=0;exitDy=0;" parent="1" source="33" target="42" edge="1">
                    <mxGeometry relative="1" as="geometry">
                        <mxPoint x="898" y="175.5" as="sourcePoint"/>
                        <mxPoint x="933" y="148.5" as="targetPoint"/>
                    </mxGeometry>
                </mxCell>
                <mxCell id="44" value="" style="strokeWidth=2;html=1;shape=mxgraph.flowchart.annotation_2;align=left;labelPosition=right;pointerEvents=1;sketch=0;hachureGap=4;jiggle=2;curveFitting=1;fontFamily=Verdana;fontSize=20;fillColor=#f5f5f5;fontColor=#333333;strokeColor=#666666;" parent="1" vertex="1">
                    <mxGeometry x="1028.5" y="135.5" width="127" height="100" as="geometry"/>
                </mxCell>
                <mxCell id="61" value="&lt;font face=&quot;Verdana&quot;&gt;Temporada&lt;/font&gt;" style="whiteSpace=wrap;html=1;align=center;sketch=0;hachureGap=4;jiggle=2;curveFitting=1;fontFamily=Architects Daughter;fontSource=https%3A%2F%2Ffonts.googleapis.com%2Fcss%3Ffamily%3DArchitects%2BDaughter;fontSize=20;fillColor=#f5f5f5;fontColor=#333333;strokeColor=#666666;" parent="1" vertex="1">
                    <mxGeometry x="101" y="462" width="132" height="40" as="geometry"/>
                </mxCell>
                <mxCell id="62" value="&lt;font face=&quot;Verdana&quot;&gt;T-ID&lt;/font&gt;" style="ellipse;whiteSpace=wrap;html=1;align=center;fontStyle=4;sketch=0;hachureGap=4;jiggle=2;curveFitting=1;fontFamily=Architects Daughter;fontSource=https%3A%2F%2Ffonts.googleapis.com%2Fcss%3Ffamily%3DArchitects%2BDaughter;fontSize=20;fillColor=#f5f5f5;fontColor=#333333;strokeColor=#666666;" parent="1" vertex="1">
                    <mxGeometry x="117" y="399" width="100" height="40" as="geometry"/>
                </mxCell>
                <mxCell id="63" value="" style="endArrow=none;html=1;rounded=0;hachureGap=4;fontFamily=Architects Daughter;fontSource=https%3A%2F%2Ffonts.googleapis.com%2Fcss%3Ffamily%3DArchitects%2BDaughter;fontSize=16;entryX=0.5;entryY=1;entryDx=0;entryDy=0;exitX=0.5;exitY=0;exitDx=0;exitDy=0;strokeColor=#030303;" parent="1" source="61" target="62" edge="1">
                    <mxGeometry relative="1" as="geometry">
                        <mxPoint x="270" y="457" as="sourcePoint"/>
                        <mxPoint x="225" y="427" as="targetPoint"/>
                    </mxGeometry>
                </mxCell>
                <mxCell id="64" value="Asociado" style="shape=rhombus;double=1;perimeter=rhombusPerimeter;whiteSpace=wrap;html=1;align=center;sketch=0;hachureGap=4;jiggle=2;curveFitting=1;strokeWidth=2;fontFamily=Verdana;fontSize=20;fontColor=#333333;fillColor=#f5f5f5;strokeColor=#666666;" parent="1" vertex="1">
                    <mxGeometry x="322" y="452" width="148" height="60" as="geometry"/>
                </mxCell>
                <mxCell id="65" value="Serie" style="shape=ext;margin=3;double=1;whiteSpace=wrap;html=1;align=center;sketch=0;hachureGap=4;jiggle=2;curveFitting=1;strokeWidth=2;fontFamily=Verdana;fontSize=20;fontColor=#333333;fillColor=#f5f5f5;strokeColor=#666666;" parent="1" vertex="1">
                    <mxGeometry x="559" y="462" width="100" height="40" as="geometry"/>
                </mxCell>
                <mxCell id="66" value="" style="endArrow=none;html=1;rounded=0;sketch=0;hachureGap=4;jiggle=2;curveFitting=1;strokeColor=#030303;fontFamily=Architects Daughter;fontSource=https%3A%2F%2Ffonts.googleapis.com%2Fcss%3Ffamily%3DArchitects%2BDaughter;fontSize=16;fontColor=#000000;entryX=0;entryY=0.5;entryDx=0;entryDy=0;exitX=1;exitY=0.5;exitDx=0;exitDy=0;" parent="1" source="61" target="64" edge="1">
                    <mxGeometry relative="1" as="geometry">
                        <mxPoint x="250" y="485.16999999999996" as="sourcePoint"/>
                        <mxPoint x="368" y="485.7599999999999" as="targetPoint"/>
                    </mxGeometry>
                </mxCell>
                <mxCell id="67" value="&lt;font face=&quot;Verdana&quot;&gt;1,1&lt;/font&gt;" style="resizable=0;html=1;align=left;verticalAlign=bottom;sketch=0;hachureGap=4;jiggle=2;curveFitting=1;fontFamily=Architects Daughter;fontSource=https%3A%2F%2Ffonts.googleapis.com%2Fcss%3Ffamily%3DArchitects%2BDaughter;fontSize=20;fontColor=#000000;fillColor=#1D1D1D;" parent="66" connectable="0" vertex="1">
                    <mxGeometry x="-1" relative="1" as="geometry">
                        <mxPoint x="7" y="1" as="offset"/>
                    </mxGeometry>
                </mxCell>
                <mxCell id="68" value="" style="resizable=0;html=1;align=right;verticalAlign=bottom;sketch=0;hachureGap=4;jiggle=2;curveFitting=1;fontFamily=Architects Daughter;fontSource=https%3A%2F%2Ffonts.googleapis.com%2Fcss%3Ffamily%3DArchitects%2BDaughter;fontSize=20;fontColor=#000000;fillColor=#1D1D1D;" parent="66" connectable="0" vertex="1">
                    <mxGeometry x="1" relative="1" as="geometry"/>
                </mxCell>
                <mxCell id="69" value="" style="endArrow=none;html=1;rounded=0;sketch=0;hachureGap=4;jiggle=2;curveFitting=1;strokeColor=#030303;fontFamily=Architects Daughter;fontSource=https%3A%2F%2Ffonts.googleapis.com%2Fcss%3Ffamily%3DArchitects%2BDaughter;fontSize=16;fontColor=#000000;entryX=0;entryY=0.5;entryDx=0;entryDy=0;exitX=1;exitY=0.5;exitDx=0;exitDy=0;" parent="1" source="64" target="65" edge="1">
                    <mxGeometry relative="1" as="geometry">
                        <mxPoint x="487" y="481.58" as="sourcePoint"/>
                        <mxPoint x="605" y="481.17" as="targetPoint"/>
                    </mxGeometry>
                </mxCell>
                <mxCell id="70" value="" style="resizable=0;html=1;align=left;verticalAlign=bottom;sketch=0;hachureGap=4;jiggle=2;curveFitting=1;fontFamily=Architects Daughter;fontSource=https%3A%2F%2Ffonts.googleapis.com%2Fcss%3Ffamily%3DArchitects%2BDaughter;fontSize=20;fontColor=#000000;fillColor=#1D1D1D;" parent="69" connectable="0" vertex="1">
                    <mxGeometry x="-1" relative="1" as="geometry"/>
                </mxCell>
                <mxCell id="71" value="" style="resizable=0;html=1;align=right;verticalAlign=bottom;sketch=0;hachureGap=4;jiggle=2;curveFitting=1;fontFamily=Architects Daughter;fontSource=https%3A%2F%2Ffonts.googleapis.com%2Fcss%3Ffamily%3DArchitects%2BDaughter;fontSize=20;fontColor=#000000;fillColor=#1D1D1D;" parent="69" connectable="0" vertex="1">
                    <mxGeometry x="1" relative="1" as="geometry">
                        <mxPoint x="-41" y="-1" as="offset"/>
                    </mxGeometry>
                </mxCell>
                <mxCell id="73" value="1,*" style="text;html=1;align=center;verticalAlign=middle;resizable=0;points=[];autosize=1;strokeColor=none;fillColor=none;fontSize=20;fontFamily=Verdana;fontColor=#000000;sketch=1;hachureGap=4;jiggle=2;curveFitting=1;fontSource=https%3A%2F%2Ffonts.googleapis.com%2Fcss%3Ffamily%3DArchitects%2BDaughter;" parent="1" vertex="1">
                    <mxGeometry x="516" y="451" width="43" height="36" as="geometry"/>
                </mxCell>
                <mxCell id="74" value="&lt;u&gt;T-ID&lt;/u&gt;" style="ellipse;whiteSpace=wrap;html=1;align=center;dashed=1;sketch=0;hachureGap=4;jiggle=2;curveFitting=1;strokeWidth=2;fontFamily=Verdana;fontSize=20;fontColor=#333333;fillColor=#f5f5f5;strokeColor=#666666;" parent="1" vertex="1">
                    <mxGeometry x="452" y="405" width="100" height="40" as="geometry"/>
                </mxCell>
                <mxCell id="77" value="&lt;font face=&quot;Verdana&quot;&gt;S-ID&lt;/font&gt;" style="ellipse;whiteSpace=wrap;html=1;align=center;fontStyle=4;sketch=0;hachureGap=4;jiggle=2;curveFitting=1;fontFamily=Architects Daughter;fontSource=https%3A%2F%2Ffonts.googleapis.com%2Fcss%3Ffamily%3DArchitects%2BDaughter;fontSize=20;fillColor=#f5f5f5;fontColor=#333333;strokeColor=#666666;" parent="1" vertex="1">
                    <mxGeometry x="661" y="405" width="100" height="40" as="geometry"/>
                </mxCell>
                <mxCell id="79" value="&lt;font face=&quot;Verdana&quot;&gt;Tipo&lt;/font&gt;" style="ellipse;whiteSpace=wrap;html=1;align=center;sketch=0;hachureGap=4;jiggle=2;curveFitting=1;fontFamily=Architects Daughter;fontSource=https%3A%2F%2Ffonts.googleapis.com%2Fcss%3Ffamily%3DArchitects%2BDaughter;fontSize=20;fillColor=#f5f5f5;fontColor=#333333;strokeColor=#666666;" parent="1" vertex="1">
                    <mxGeometry x="643" y="518" width="100" height="40" as="geometry"/>
                </mxCell>
                <mxCell id="81" value="" style="endArrow=none;html=1;rounded=0;hachureGap=4;fontFamily=Architects Daughter;fontSource=https%3A%2F%2Ffonts.googleapis.com%2Fcss%3Ffamily%3DArchitects%2BDaughter;fontSize=16;entryX=0.25;entryY=0;entryDx=0;entryDy=0;exitX=0.5;exitY=1;exitDx=0;exitDy=0;strokeColor=#030303;" parent="1" source="74" target="65" edge="1">
                    <mxGeometry relative="1" as="geometry">
                        <mxPoint x="603" y="229.10000000000002" as="sourcePoint"/>
                        <mxPoint x="561" y="200.10000000000002" as="targetPoint"/>
                    </mxGeometry>
                </mxCell>
                <mxCell id="83" value="" style="endArrow=none;html=1;rounded=0;hachureGap=4;fontFamily=Architects Daughter;fontSource=https%3A%2F%2Ffonts.googleapis.com%2Fcss%3Ffamily%3DArchitects%2BDaughter;fontSize=16;exitX=0.5;exitY=1;exitDx=0;exitDy=0;strokeColor=#030303;entryX=0.75;entryY=0;entryDx=0;entryDy=0;" parent="1" source="77" target="65" edge="1">
                    <mxGeometry relative="1" as="geometry">
                        <mxPoint x="568" y="445" as="sourcePoint"/>
                        <mxPoint x="627" y="419" as="targetPoint"/>
                    </mxGeometry>
                </mxCell>
                <mxCell id="84" value="" style="endArrow=none;html=1;rounded=0;hachureGap=4;fontFamily=Architects Daughter;fontSource=https%3A%2F%2Ffonts.googleapis.com%2Fcss%3Ffamily%3DArchitects%2BDaughter;fontSize=16;entryX=0.25;entryY=1;entryDx=0;entryDy=0;exitX=0.5;exitY=0;exitDx=0;exitDy=0;strokeColor=#030303;" parent="1" source="181" target="65" edge="1">
                    <mxGeometry relative="1" as="geometry">
                        <mxPoint x="551" y="524" as="sourcePoint"/>
                        <mxPoint x="594" y="472" as="targetPoint"/>
                    </mxGeometry>
                </mxCell>
                <mxCell id="85" value="" style="endArrow=none;html=1;rounded=0;hachureGap=4;fontFamily=Architects Daughter;fontSource=https%3A%2F%2Ffonts.googleapis.com%2Fcss%3Ffamily%3DArchitects%2BDaughter;fontSize=16;entryX=0.5;entryY=0;entryDx=0;entryDy=0;exitX=0.75;exitY=1;exitDx=0;exitDy=0;strokeColor=#030303;" parent="1" source="65" target="79" edge="1">
                    <mxGeometry relative="1" as="geometry">
                        <mxPoint x="532.5" y="537" as="sourcePoint"/>
                        <mxPoint x="594" y="512" as="targetPoint"/>
                    </mxGeometry>
                </mxCell>
                <mxCell id="86" value="compiten" style="shape=rhombus;perimeter=rhombusPerimeter;whiteSpace=wrap;html=1;align=center;sketch=0;hachureGap=4;jiggle=2;curveFitting=1;fontFamily=Architects Daughter;fontSource=https%3A%2F%2Ffonts.googleapis.com%2Fcss%3Ffamily%3DArchitects%2BDaughter;fontSize=20;fillColor=#f5f5f5;fontColor=#333333;strokeColor=#666666;" parent="1" vertex="1">
                    <mxGeometry x="757" y="453" width="148" height="58" as="geometry"/>
                </mxCell>
                <mxCell id="87" value="" style="endArrow=none;html=1;rounded=0;sketch=0;hachureGap=4;jiggle=2;curveFitting=1;strokeColor=#030303;fontFamily=Architects Daughter;fontSource=https%3A%2F%2Ffonts.googleapis.com%2Fcss%3Ffamily%3DArchitects%2BDaughter;fontSize=16;fontColor=#000000;entryX=0;entryY=0.5;entryDx=0;entryDy=0;exitX=1;exitY=0.5;exitDx=0;exitDy=0;" parent="1" source="65" target="86" edge="1">
                    <mxGeometry relative="1" as="geometry">
                        <mxPoint x="668" y="482.24999999999994" as="sourcePoint"/>
                        <mxPoint x="781" y="482.24999999999994" as="targetPoint"/>
                    </mxGeometry>
                </mxCell>
                <mxCell id="88" value="&lt;span style=&quot;font-family: Verdana;&quot;&gt;1,*&lt;/span&gt;" style="resizable=0;html=1;align=left;verticalAlign=bottom;sketch=0;hachureGap=4;jiggle=2;curveFitting=1;fontFamily=Architects Daughter;fontSource=https%3A%2F%2Ffonts.googleapis.com%2Fcss%3Ffamily%3DArchitects%2BDaughter;fontSize=20;fontColor=#000000;fillColor=#1D1D1D;" parent="87" connectable="0" vertex="1">
                    <mxGeometry x="-1" relative="1" as="geometry">
                        <mxPoint x="6" as="offset"/>
                    </mxGeometry>
                </mxCell>
                <mxCell id="89" value="" style="resizable=0;html=1;align=right;verticalAlign=bottom;sketch=0;hachureGap=4;jiggle=2;curveFitting=1;fontFamily=Architects Daughter;fontSource=https%3A%2F%2Ffonts.googleapis.com%2Fcss%3Ffamily%3DArchitects%2BDaughter;fontSize=20;fontColor=#000000;fillColor=#1D1D1D;" parent="87" connectable="0" vertex="1">
                    <mxGeometry x="1" relative="1" as="geometry"/>
                </mxCell>
                <mxCell id="90" value="" style="resizable=0;html=1;align=left;verticalAlign=bottom;sketch=0;hachureGap=4;jiggle=2;curveFitting=1;fontFamily=Architects Daughter;fontSource=https%3A%2F%2Ffonts.googleapis.com%2Fcss%3Ffamily%3DArchitects%2BDaughter;fontSize=20;fontColor=#000000;fillColor=#1D1D1D;" parent="1" connectable="0" vertex="1">
                    <mxGeometry x="883" y="482.24999999999994" as="geometry"/>
                </mxCell>
                <mxCell id="91" value="&lt;font face=&quot;Verdana&quot;&gt;Equipo&lt;/font&gt;" style="whiteSpace=wrap;html=1;align=center;sketch=0;hachureGap=4;jiggle=2;curveFitting=1;fontFamily=Architects Daughter;fontSource=https%3A%2F%2Ffonts.googleapis.com%2Fcss%3Ffamily%3DArchitects%2BDaughter;fontSize=20;fillColor=#f5f5f5;fontColor=#333333;strokeColor=#666666;" parent="1" vertex="1">
                    <mxGeometry x="1020" y="462" width="100" height="40" as="geometry"/>
                </mxCell>
                <mxCell id="92" value="&lt;font face=&quot;Verdana&quot;&gt;E-ID&lt;/font&gt;" style="ellipse;whiteSpace=wrap;html=1;align=center;fontStyle=4;sketch=0;hachureGap=4;jiggle=2;curveFitting=1;fontFamily=Architects Daughter;fontSource=https%3A%2F%2Ffonts.googleapis.com%2Fcss%3Ffamily%3DArchitects%2BDaughter;fontSize=20;fillColor=#f5f5f5;fontColor=#333333;strokeColor=#666666;" parent="1" vertex="1">
                    <mxGeometry x="953" y="393" width="100" height="40" as="geometry"/>
                </mxCell>
                <mxCell id="93" value="" style="endArrow=none;html=1;rounded=0;hachureGap=4;fontFamily=Architects Daughter;fontSource=https%3A%2F%2Ffonts.googleapis.com%2Fcss%3Ffamily%3DArchitects%2BDaughter;fontSize=16;entryX=0.5;entryY=1;entryDx=0;entryDy=0;exitX=0.25;exitY=0;exitDx=0;exitDy=0;strokeColor=#030303;" parent="1" source="91" target="92" edge="1">
                    <mxGeometry relative="1" as="geometry">
                        <mxPoint x="1073" y="462.9999999999999" as="sourcePoint"/>
                        <mxPoint x="1123" y="473" as="targetPoint"/>
                    </mxGeometry>
                </mxCell>
                <mxCell id="94" value="&lt;font face=&quot;Verdana&quot;&gt;Nombre&lt;/font&gt;" style="ellipse;whiteSpace=wrap;html=1;align=center;sketch=0;hachureGap=4;jiggle=2;curveFitting=1;fontFamily=Architects Daughter;fontSource=https%3A%2F%2Ffonts.googleapis.com%2Fcss%3Ffamily%3DArchitects%2BDaughter;fontSize=20;fillColor=#f5f5f5;fontColor=#333333;strokeColor=#666666;" parent="1" vertex="1">
                    <mxGeometry x="1083" y="393" width="100" height="40" as="geometry"/>
                </mxCell>
                <mxCell id="95" value="" style="endArrow=none;html=1;rounded=0;hachureGap=4;fontFamily=Architects Daughter;fontSource=https%3A%2F%2Ffonts.googleapis.com%2Fcss%3Ffamily%3DArchitects%2BDaughter;fontSize=16;entryX=0.5;entryY=1;entryDx=0;entryDy=0;exitX=0.75;exitY=0;exitDx=0;exitDy=0;strokeColor=#030303;" parent="1" source="91" target="94" edge="1">
                    <mxGeometry relative="1" as="geometry">
                        <mxPoint x="1073" y="462.9999999999999" as="sourcePoint"/>
                        <mxPoint x="1173" y="463" as="targetPoint"/>
                    </mxGeometry>
                </mxCell>
                <mxCell id="96" value="" style="endArrow=none;html=1;rounded=0;sketch=0;hachureGap=4;jiggle=2;curveFitting=1;strokeColor=#030303;fontFamily=Architects Daughter;fontSource=https%3A%2F%2Ffonts.googleapis.com%2Fcss%3Ffamily%3DArchitects%2BDaughter;fontSize=16;fontColor=#000000;entryX=0;entryY=0.5;entryDx=0;entryDy=0;exitX=1;exitY=0.5;exitDx=0;exitDy=0;" parent="1" source="86" target="91" edge="1">
                    <mxGeometry relative="1" as="geometry">
                        <mxPoint x="902" y="482.40999999999997" as="sourcePoint"/>
                        <mxPoint x="1020" y="483" as="targetPoint"/>
                    </mxGeometry>
                </mxCell>
                <mxCell id="97" value="" style="resizable=0;html=1;align=left;verticalAlign=bottom;sketch=0;hachureGap=4;jiggle=2;curveFitting=1;fontFamily=Architects Daughter;fontSource=https%3A%2F%2Ffonts.googleapis.com%2Fcss%3Ffamily%3DArchitects%2BDaughter;fontSize=20;fontColor=#000000;fillColor=#1D1D1D;" parent="96" connectable="0" vertex="1">
                    <mxGeometry x="-1" relative="1" as="geometry"/>
                </mxCell>
                <mxCell id="98" value="" style="resizable=0;html=1;align=right;verticalAlign=bottom;sketch=0;hachureGap=4;jiggle=2;curveFitting=1;fontFamily=Architects Daughter;fontSource=https%3A%2F%2Ffonts.googleapis.com%2Fcss%3Ffamily%3DArchitects%2BDaughter;fontSize=20;fontColor=#000000;fillColor=#1D1D1D;" parent="96" connectable="0" vertex="1">
                    <mxGeometry x="1" relative="1" as="geometry">
                        <mxPoint x="-41" y="-1" as="offset"/>
                    </mxGeometry>
                </mxCell>
                <mxCell id="99" value="*,*" style="text;html=1;align=center;verticalAlign=middle;resizable=0;points=[];autosize=1;strokeColor=none;fillColor=none;fontSize=20;fontFamily=Verdana;fontColor=#000000;sketch=1;hachureGap=4;jiggle=2;curveFitting=1;fontSource=https%3A%2F%2Ffonts.googleapis.com%2Fcss%3Ffamily%3DArchitects%2BDaughter;" parent="1" vertex="1">
                    <mxGeometry x="981.5" y="451" width="43" height="36" as="geometry"/>
                </mxCell>
                <mxCell id="103" value="&lt;font face=&quot;Verdana&quot;&gt;Color&lt;/font&gt;" style="ellipse;whiteSpace=wrap;html=1;align=center;sketch=0;hachureGap=4;jiggle=2;curveFitting=1;fontFamily=Architects Daughter;fontSource=https%3A%2F%2Ffonts.googleapis.com%2Fcss%3Ffamily%3DArchitects%2BDaughter;fontSize=20;fillColor=#f5f5f5;fontColor=#333333;strokeColor=#666666;" parent="1" vertex="1">
                    <mxGeometry x="1016" y="518" width="100" height="40" as="geometry"/>
                </mxCell>
                <mxCell id="105" value="" style="endArrow=none;html=1;rounded=0;hachureGap=4;fontFamily=Architects Daughter;fontSource=https%3A%2F%2Ffonts.googleapis.com%2Fcss%3Ffamily%3DArchitects%2BDaughter;fontSize=16;exitX=1;exitY=1;exitDx=0;exitDy=0;strokeColor=#030303;entryX=0.5;entryY=0;entryDx=0;entryDy=0;" parent="1" source="91" target="158" edge="1">
                    <mxGeometry relative="1" as="geometry">
                        <mxPoint x="1105" y="472" as="sourcePoint"/>
                        <mxPoint x="1109.4999999999998" y="580" as="targetPoint"/>
                    </mxGeometry>
                </mxCell>
                <mxCell id="106" value="" style="endArrow=none;html=1;rounded=0;hachureGap=4;fontFamily=Architects Daughter;fontSource=https%3A%2F%2Ffonts.googleapis.com%2Fcss%3Ffamily%3DArchitects%2BDaughter;fontSize=16;entryX=0.5;entryY=0;entryDx=0;entryDy=0;exitX=0.5;exitY=1;exitDx=0;exitDy=0;strokeColor=#030303;" parent="1" source="91" target="103" edge="1">
                    <mxGeometry relative="1" as="geometry">
                        <mxPoint x="1130" y="512" as="sourcePoint"/>
                        <mxPoint x="1242.5" y="527" as="targetPoint"/>
                    </mxGeometry>
                </mxCell>
                <mxCell id="107" value="" style="endArrow=none;html=1;rounded=0;hachureGap=4;fontFamily=Architects Daughter;fontSource=https%3A%2F%2Ffonts.googleapis.com%2Fcss%3Ffamily%3DArchitects%2BDaughter;fontSize=16;entryX=0.5;entryY=0;entryDx=0;entryDy=0;exitX=0;exitY=1;exitDx=0;exitDy=0;strokeColor=#030303;" parent="1" source="91" target="157" edge="1">
                    <mxGeometry relative="1" as="geometry">
                        <mxPoint x="1130" y="512" as="sourcePoint"/>
                        <mxPoint x="963" y="552" as="targetPoint"/>
                    </mxGeometry>
                </mxCell>
                <mxCell id="109" value="posee" style="shape=rhombus;perimeter=rhombusPerimeter;whiteSpace=wrap;html=1;align=center;sketch=0;hachureGap=4;jiggle=2;curveFitting=1;fontFamily=Architects Daughter;fontSource=https%3A%2F%2Ffonts.googleapis.com%2Fcss%3Ffamily%3DArchitects%2BDaughter;fontSize=20;fillColor=#f5f5f5;fontColor=#333333;strokeColor=#666666;" parent="1" vertex="1">
                    <mxGeometry x="1223.5" y="456.5" width="99" height="51" as="geometry"/>
                </mxCell>
                <mxCell id="110" value="" style="resizable=0;html=1;align=left;verticalAlign=bottom;sketch=0;hachureGap=4;jiggle=2;curveFitting=1;fontFamily=Architects Daughter;fontSource=https%3A%2F%2Ffonts.googleapis.com%2Fcss%3Ffamily%3DArchitects%2BDaughter;fontSize=20;fontColor=#000000;fillColor=#1D1D1D;" parent="1" connectable="0" vertex="1">
                    <mxGeometry x="1319" y="482.24999999999994" as="geometry"/>
                </mxCell>
                <mxCell id="111" value="&lt;font face=&quot;Verdana&quot;&gt;Equipo de producción&lt;/font&gt;" style="whiteSpace=wrap;html=1;align=center;sketch=0;hachureGap=4;jiggle=2;curveFitting=1;fontFamily=Architects Daughter;fontSource=https%3A%2F%2Ffonts.googleapis.com%2Fcss%3Ffamily%3DArchitects%2BDaughter;fontSize=20;fillColor=#f5f5f5;fontColor=#333333;strokeColor=#666666;" parent="1" vertex="1">
                    <mxGeometry x="1417.5" y="462" width="188" height="40" as="geometry"/>
                </mxCell>
                <mxCell id="115" value="" style="endArrow=none;html=1;rounded=0;hachureGap=4;fontFamily=Architects Daughter;fontSource=https%3A%2F%2Ffonts.googleapis.com%2Fcss%3Ffamily%3DArchitects%2BDaughter;fontSize=16;entryX=0.5;entryY=1;entryDx=0;entryDy=0;exitX=0.5;exitY=0;exitDx=0;exitDy=0;strokeColor=#030303;" parent="1" source="111" target="165" edge="1">
                    <mxGeometry relative="1" as="geometry">
                        <mxPoint x="1509" y="462.9999999999999" as="sourcePoint"/>
                        <mxPoint x="1569" y="433" as="targetPoint"/>
                    </mxGeometry>
                </mxCell>
                <mxCell id="116" value="" style="endArrow=none;html=1;rounded=0;sketch=0;hachureGap=4;jiggle=2;curveFitting=1;strokeColor=#030303;fontFamily=Architects Daughter;fontSource=https%3A%2F%2Ffonts.googleapis.com%2Fcss%3Ffamily%3DArchitects%2BDaughter;fontSize=16;fontColor=#000000;entryX=0;entryY=0.5;entryDx=0;entryDy=0;exitX=1;exitY=0.5;exitDx=0;exitDy=0;" parent="1" source="109" target="111" edge="1">
                    <mxGeometry relative="1" as="geometry">
                        <mxPoint x="1338.0000000000002" y="482.2500000000002" as="sourcePoint"/>
                        <mxPoint x="1456" y="483" as="targetPoint"/>
                    </mxGeometry>
                </mxCell>
                <mxCell id="117" value="" style="resizable=0;html=1;align=left;verticalAlign=bottom;sketch=0;hachureGap=4;jiggle=2;curveFitting=1;fontFamily=Architects Daughter;fontSource=https%3A%2F%2Ffonts.googleapis.com%2Fcss%3Ffamily%3DArchitects%2BDaughter;fontSize=20;fontColor=#000000;fillColor=#1D1D1D;" parent="116" connectable="0" vertex="1">
                    <mxGeometry x="-1" relative="1" as="geometry"/>
                </mxCell>
                <mxCell id="118" value="" style="resizable=0;html=1;align=right;verticalAlign=bottom;sketch=0;hachureGap=4;jiggle=2;curveFitting=1;fontFamily=Architects Daughter;fontSource=https%3A%2F%2Ffonts.googleapis.com%2Fcss%3Ffamily%3DArchitects%2BDaughter;fontSize=20;fontColor=#000000;fillColor=#1D1D1D;" parent="116" connectable="0" vertex="1">
                    <mxGeometry x="1" relative="1" as="geometry">
                        <mxPoint x="-41" y="-1" as="offset"/>
                    </mxGeometry>
                </mxCell>
                <mxCell id="119" value="1,1" style="text;html=1;align=center;verticalAlign=middle;resizable=0;points=[];autosize=1;strokeColor=none;fillColor=none;fontSize=20;fontFamily=Verdana;fontColor=#000000;sketch=1;hachureGap=4;jiggle=2;curveFitting=1;fontSource=https%3A%2F%2Ffonts.googleapis.com%2Fcss%3Ffamily%3DArchitects%2BDaughter;" parent="1" vertex="1">
                    <mxGeometry x="1372.5" y="451" width="43" height="36" as="geometry"/>
                </mxCell>
                <mxCell id="120" value="" style="endArrow=none;html=1;rounded=0;sketch=0;hachureGap=4;jiggle=2;curveFitting=1;strokeColor=#030303;fontFamily=Architects Daughter;fontSource=https%3A%2F%2Ffonts.googleapis.com%2Fcss%3Ffamily%3DArchitects%2BDaughter;fontSize=16;fontColor=#000000;entryX=0;entryY=0.5;entryDx=0;entryDy=0;exitX=1;exitY=0.5;exitDx=0;exitDy=0;" parent="1" source="91" target="109" edge="1">
                    <mxGeometry relative="1" as="geometry">
                        <mxPoint x="1128.4999999999998" y="480.71" as="sourcePoint"/>
                        <mxPoint x="1223.5000000000002" y="480.9600000000002" as="targetPoint"/>
                    </mxGeometry>
                </mxCell>
                <mxCell id="121" value="&lt;font face=&quot;Verdana&quot;&gt;1,1&lt;/font&gt;" style="resizable=0;html=1;align=left;verticalAlign=bottom;sketch=0;hachureGap=4;jiggle=2;curveFitting=1;fontFamily=Architects Daughter;fontSource=https%3A%2F%2Ffonts.googleapis.com%2Fcss%3Ffamily%3DArchitects%2BDaughter;fontSize=20;fontColor=#000000;fillColor=#1D1D1D;" parent="120" connectable="0" vertex="1">
                    <mxGeometry x="-1" relative="1" as="geometry">
                        <mxPoint x="6" as="offset"/>
                    </mxGeometry>
                </mxCell>
                <mxCell id="122" value="" style="resizable=0;html=1;align=right;verticalAlign=bottom;sketch=0;hachureGap=4;jiggle=2;curveFitting=1;fontFamily=Architects Daughter;fontSource=https%3A%2F%2Ffonts.googleapis.com%2Fcss%3Ffamily%3DArchitects%2BDaughter;fontSize=20;fontColor=#000000;fillColor=#1D1D1D;" parent="120" connectable="0" vertex="1">
                    <mxGeometry x="1" relative="1" as="geometry"/>
                </mxCell>
                <mxCell id="125" value="" style="html=1;shadow=0;dashed=0;shape=mxgraph.basic.arc;startAngle=0.24657784054822296;endAngle=0.7468797146831239;strokeWidth=2;strokeColor=#6C767D;sketch=0;hachureGap=4;jiggle=2;curveFitting=1;fontFamily=Verdana;fontSize=20;fontColor=#000000;fillColor=#1D1D1D;rotation=-90;" parent="1" vertex="1">
                    <mxGeometry x="1109.75" y="115.60000000000002" width="26.73" height="34.89" as="geometry"/>
                </mxCell>
                <mxCell id="126" value="&lt;font face=&quot;Verdana&quot;&gt;Pelotero&lt;/font&gt;" style="whiteSpace=wrap;html=1;align=center;sketch=0;hachureGap=4;jiggle=2;curveFitting=1;fontFamily=Architects Daughter;fontSource=https%3A%2F%2Ffonts.googleapis.com%2Fcss%3Ffamily%3DArchitects%2BDaughter;fontSize=20;fillColor=#f5f5f5;fontColor=#333333;strokeColor=#666666;" parent="1" vertex="1">
                    <mxGeometry x="1155.75" y="118.60000000000002" width="125" height="40" as="geometry"/>
                </mxCell>
                <mxCell id="127" value="&lt;u&gt;CI&lt;/u&gt;" style="ellipse;whiteSpace=wrap;html=1;align=center;dashed=1;sketch=0;hachureGap=4;jiggle=2;curveFitting=1;strokeWidth=2;fontFamily=Verdana;fontSize=20;fontColor=#333333;fillColor=#f5f5f5;strokeColor=#666666;" parent="1" vertex="1">
                    <mxGeometry x="1168.25" y="39.50000000000003" width="100" height="40" as="geometry"/>
                </mxCell>
                <mxCell id="129" value="&lt;font face=&quot;Verdana&quot;&gt;Promedio de bateo&lt;/font&gt;" style="ellipse;whiteSpace=wrap;html=1;align=center;sketch=0;hachureGap=4;jiggle=2;curveFitting=1;fontFamily=Architects Daughter;fontSource=https%3A%2F%2Ffonts.googleapis.com%2Fcss%3Ffamily%3DArchitects%2BDaughter;fontSize=20;fillColor=#f5f5f5;fontColor=#333333;strokeColor=#666666;" parent="1" vertex="1">
                    <mxGeometry x="940.75" y="33.00000000000003" width="169" height="53" as="geometry"/>
                </mxCell>
                <mxCell id="130" value="&lt;font face=&quot;Verdana&quot;&gt;Años de experiencia&lt;/font&gt;" style="ellipse;whiteSpace=wrap;html=1;align=center;sketch=0;hachureGap=4;jiggle=2;curveFitting=1;fontFamily=Architects Daughter;fontSource=https%3A%2F%2Ffonts.googleapis.com%2Fcss%3Ffamily%3DArchitects%2BDaughter;fontSize=20;fillColor=#f5f5f5;fontColor=#333333;strokeColor=#666666;" parent="1" vertex="1">
                    <mxGeometry x="1287" y="39.50000000000003" width="182" height="52" as="geometry"/>
                </mxCell>
                <mxCell id="136" value="" style="endArrow=none;html=1;rounded=0;hachureGap=4;fontFamily=Architects Daughter;fontSource=https%3A%2F%2Ffonts.googleapis.com%2Fcss%3Ffamily%3DArchitects%2BDaughter;fontSize=16;strokeColor=#030303;exitX=0.5;exitY=0;exitDx=0;exitDy=0;entryX=0.5;entryY=1;entryDx=0;entryDy=0;" parent="1" source="138" target="139" edge="1">
                    <mxGeometry relative="1" as="geometry">
                        <mxPoint x="1218" y="112.60000000000014" as="sourcePoint"/>
                        <mxPoint x="1218" y="87.5" as="targetPoint"/>
                    </mxGeometry>
                </mxCell>
                <mxCell id="138" value="&lt;u&gt;CI&lt;/u&gt;" style="ellipse;whiteSpace=wrap;html=1;align=center;dashed=1;sketch=0;hachureGap=4;jiggle=2;curveFitting=1;strokeWidth=2;fontFamily=Verdana;fontSize=20;fontColor=#333333;fillColor=#f5f5f5;strokeColor=#666666;" parent="1" vertex="1">
                    <mxGeometry x="1166" y="284.5" width="100" height="40" as="geometry"/>
                </mxCell>
                <mxCell id="139" value="&lt;font face=&quot;Verdana&quot;&gt;Trabajador&lt;/font&gt;" style="whiteSpace=wrap;html=1;align=center;sketch=0;hachureGap=4;jiggle=2;curveFitting=1;fontFamily=Architects Daughter;fontSource=https%3A%2F%2Ffonts.googleapis.com%2Fcss%3Ffamily%3DArchitects%2BDaughter;fontSize=20;fillColor=#f5f5f5;fontColor=#333333;strokeColor=#666666;" parent="1" vertex="1">
                    <mxGeometry x="1153.5" y="217.10000000000002" width="125" height="40" as="geometry"/>
                </mxCell>
                <mxCell id="141" value="" style="html=1;shadow=0;dashed=0;shape=mxgraph.basic.arc;startAngle=0.24657784054822296;endAngle=0.7468797146831239;strokeWidth=2;strokeColor=#6C767D;sketch=0;hachureGap=4;jiggle=2;curveFitting=1;fontFamily=Verdana;fontSize=20;fontColor=#000000;fillColor=#1D1D1D;rotation=-90;" parent="1" vertex="1">
                    <mxGeometry x="1102.77" y="219.65000000000003" width="26.73" height="34.89" as="geometry"/>
                </mxCell>
                <mxCell id="143" value="" style="endArrow=none;html=1;rounded=0;hachureGap=4;fontFamily=Architects Daughter;fontSource=https%3A%2F%2Ffonts.googleapis.com%2Fcss%3Ffamily%3DArchitects%2BDaughter;fontSize=16;entryX=0;entryY=1;entryDx=0;entryDy=0;strokeColor=#030303;exitX=0.75;exitY=0;exitDx=0;exitDy=0;" parent="1" source="126" target="130" edge="1">
                    <mxGeometry relative="1" as="geometry">
                        <mxPoint x="897.9999999999998" y="175.5000000000001" as="sourcePoint"/>
                        <mxPoint x="932.9999999999998" y="148.5" as="targetPoint"/>
                    </mxGeometry>
                </mxCell>
                <mxCell id="144" value="" style="endArrow=none;html=1;rounded=0;hachureGap=4;fontFamily=Architects Daughter;fontSource=https%3A%2F%2Ffonts.googleapis.com%2Fcss%3Ffamily%3DArchitects%2BDaughter;fontSize=16;entryX=0.5;entryY=1;entryDx=0;entryDy=0;strokeColor=#030303;exitX=0.5;exitY=0;exitDx=0;exitDy=0;" parent="1" source="126" target="127" edge="1">
                    <mxGeometry relative="1" as="geometry">
                        <mxPoint x="1259.5" y="128.60000000000002" as="sourcePoint"/>
                        <mxPoint x="1341.483727230181" y="104.83620383984317" as="targetPoint"/>
                    </mxGeometry>
                </mxCell>
                <mxCell id="145" value="" style="endArrow=none;html=1;rounded=0;hachureGap=4;fontFamily=Architects Daughter;fontSource=https%3A%2F%2Ffonts.googleapis.com%2Fcss%3Ffamily%3DArchitects%2BDaughter;fontSize=16;entryX=1;entryY=1;entryDx=0;entryDy=0;strokeColor=#030303;exitX=0.25;exitY=0;exitDx=0;exitDy=0;" parent="1" source="126" target="129" edge="1">
                    <mxGeometry relative="1" as="geometry">
                        <mxPoint x="1228.25" y="128.60000000000002" as="sourcePoint"/>
                        <mxPoint x="1228.25" y="89.5" as="targetPoint"/>
                    </mxGeometry>
                </mxCell>
                <mxCell id="148" value="" style="endArrow=none;html=1;rounded=0;hachureGap=4;fontFamily=Architects Daughter;fontSource=https%3A%2F%2Ffonts.googleapis.com%2Fcss%3Ffamily%3DArchitects%2BDaughter;fontSize=16;strokeColor=#030303;exitX=1;exitY=0.5;exitDx=0;exitDy=0;entryX=0;entryY=0.5;entryDx=0;entryDy=0;" parent="1" source="139" target="149" edge="1">
                    <mxGeometry relative="1" as="geometry">
                        <mxPoint x="1317" y="133" as="sourcePoint"/>
                        <mxPoint x="1422" y="137" as="targetPoint"/>
                    </mxGeometry>
                </mxCell>
                <mxCell id="149" value="&lt;font face=&quot;Verdana&quot;&gt;Director técnico&lt;/font&gt;" style="whiteSpace=wrap;html=1;align=center;sketch=0;hachureGap=4;jiggle=2;curveFitting=1;fontFamily=Architects Daughter;fontSource=https%3A%2F%2Ffonts.googleapis.com%2Fcss%3Ffamily%3DArchitects%2BDaughter;fontSize=20;fillColor=#f5f5f5;fontColor=#333333;strokeColor=#666666;" parent="1" vertex="1">
                    <mxGeometry x="1423.5" y="217.1" width="176" height="40" as="geometry"/>
                </mxCell>
                <mxCell id="151" value="" style="html=1;shadow=0;dashed=0;shape=mxgraph.basic.arc;startAngle=0.24657784054822296;endAngle=0.7468797146831239;strokeWidth=2;strokeColor=#6C767D;sketch=0;hachureGap=4;jiggle=2;curveFitting=1;fontFamily=Verdana;fontSize=20;fontColor=#000000;fillColor=#1D1D1D;rotation=-90;" parent="1" vertex="1">
                    <mxGeometry x="1333" y="221.10000000000002" width="26.73" height="34.89" as="geometry"/>
                </mxCell>
                <mxCell id="153" value="" style="endArrow=none;html=1;rounded=0;hachureGap=4;fontFamily=Architects Daughter;fontSource=https%3A%2F%2Ffonts.googleapis.com%2Fcss%3Ffamily%3DArchitects%2BDaughter;fontSize=16;strokeColor=#030303;exitX=0.5;exitY=0;exitDx=0;exitDy=0;" parent="1" source="149" target="154" edge="1">
                    <mxGeometry relative="1" as="geometry">
                        <mxPoint x="1523" y="-25.899999999999864" as="sourcePoint"/>
                        <mxPoint x="1521.0000000000002" y="118.60000000000002" as="targetPoint"/>
                    </mxGeometry>
                </mxCell>
                <mxCell id="154" value="&lt;u&gt;CI&lt;/u&gt;" style="ellipse;whiteSpace=wrap;html=1;align=center;dashed=1;sketch=0;hachureGap=4;jiggle=2;curveFitting=1;strokeWidth=2;fontFamily=Verdana;fontSize=20;fontColor=#333333;fillColor=#f5f5f5;strokeColor=#666666;" parent="1" vertex="1">
                    <mxGeometry x="1460.5" y="150.10000000000002" width="100" height="40" as="geometry"/>
                </mxCell>
                <mxCell id="155" value="&lt;font face=&quot;Verdana&quot;&gt;E-ID&lt;/font&gt;" style="ellipse;whiteSpace=wrap;html=1;align=center;fontStyle=4;sketch=0;hachureGap=4;jiggle=2;curveFitting=1;fontFamily=Architects Daughter;fontSource=https%3A%2F%2Ffonts.googleapis.com%2Fcss%3Ffamily%3DArchitects%2BDaughter;fontSize=20;fillColor=#f5f5f5;fontColor=#333333;strokeColor=#666666;" parent="1" vertex="1">
                    <mxGeometry x="1385" y="531" width="100" height="40" as="geometry"/>
                </mxCell>
                <mxCell id="156" value="&lt;font face=&quot;Verdana&quot;&gt;Nombre&lt;/font&gt;" style="ellipse;whiteSpace=wrap;html=1;align=center;sketch=0;hachureGap=4;jiggle=2;curveFitting=1;fontFamily=Architects Daughter;fontSource=https%3A%2F%2Ffonts.googleapis.com%2Fcss%3Ffamily%3DArchitects%2BDaughter;fontSize=20;fillColor=#f5f5f5;fontColor=#333333;strokeColor=#666666;" parent="1" vertex="1">
                    <mxGeometry x="1522" y="531" width="100" height="40" as="geometry"/>
                </mxCell>
                <mxCell id="157" value="&lt;font face=&quot;Verdana&quot;&gt;Entidad representante&lt;/font&gt;" style="ellipse;whiteSpace=wrap;html=1;align=center;sketch=0;hachureGap=4;jiggle=2;curveFitting=1;fontFamily=Architects Daughter;fontSource=https%3A%2F%2Ffonts.googleapis.com%2Fcss%3Ffamily%3DArchitects%2BDaughter;fontSize=20;fillColor=#f5f5f5;fontColor=#333333;strokeColor=#666666;" parent="1" vertex="1">
                    <mxGeometry x="912" y="558" width="149" height="72" as="geometry"/>
                </mxCell>
                <mxCell id="158" value="&lt;font face=&quot;Verdana&quot;&gt;Iniciales&lt;/font&gt;" style="ellipse;whiteSpace=wrap;html=1;align=center;sketch=0;hachureGap=4;jiggle=2;curveFitting=1;fontFamily=Architects Daughter;fontSource=https%3A%2F%2Ffonts.googleapis.com%2Fcss%3Ffamily%3DArchitects%2BDaughter;fontSize=20;fillColor=#f5f5f5;fontColor=#333333;strokeColor=#666666;" parent="1" vertex="1">
                    <mxGeometry x="1090" y="565" width="100" height="40" as="geometry"/>
                </mxCell>
                <mxCell id="159" value="" style="endArrow=none;html=1;rounded=0;hachureGap=4;fontFamily=Architects Daughter;fontSource=https%3A%2F%2Ffonts.googleapis.com%2Fcss%3Ffamily%3DArchitects%2BDaughter;fontSize=16;entryX=0.25;entryY=1;entryDx=0;entryDy=0;exitX=0.5;exitY=0;exitDx=0;exitDy=0;strokeColor=#030303;" parent="1" source="155" target="111" edge="1">
                    <mxGeometry relative="1" as="geometry">
                        <mxPoint x="1474.4999999999995" y="472" as="sourcePoint"/>
                        <mxPoint x="1449" y="443" as="targetPoint"/>
                    </mxGeometry>
                </mxCell>
                <mxCell id="160" value="" style="endArrow=none;html=1;rounded=0;hachureGap=4;fontFamily=Architects Daughter;fontSource=https%3A%2F%2Ffonts.googleapis.com%2Fcss%3Ffamily%3DArchitects%2BDaughter;fontSize=16;entryX=0.75;entryY=1;entryDx=0;entryDy=0;exitX=0.5;exitY=0;exitDx=0;exitDy=0;strokeColor=#030303;" parent="1" source="156" target="111" edge="1">
                    <mxGeometry relative="1" as="geometry">
                        <mxPoint x="1568.5" y="472" as="sourcePoint"/>
                        <mxPoint x="1579" y="443" as="targetPoint"/>
                    </mxGeometry>
                </mxCell>
                <mxCell id="161" value="trabajan" style="shape=rhombus;perimeter=rhombusPerimeter;whiteSpace=wrap;html=1;align=center;sketch=0;hachureGap=4;jiggle=2;curveFitting=1;fontFamily=Architects Daughter;fontSource=https%3A%2F%2Ffonts.googleapis.com%2Fcss%3Ffamily%3DArchitects%2BDaughter;fontSize=20;fillColor=#f5f5f5;fontColor=#333333;strokeColor=#666666;rotation=45;" parent="1" vertex="1">
                    <mxGeometry x="1295" y="334" width="153" height="53" as="geometry"/>
                </mxCell>
                <mxCell id="163" value="" style="endArrow=none;html=1;rounded=0;hachureGap=4;fontFamily=Architects Daughter;fontSource=https%3A%2F%2Ffonts.googleapis.com%2Fcss%3Ffamily%3DArchitects%2BDaughter;fontSize=16;entryX=1;entryY=0.5;entryDx=0;entryDy=0;exitX=0.25;exitY=0;exitDx=0;exitDy=0;strokeColor=#030303;" parent="1" source="111" target="161" edge="1">
                    <mxGeometry relative="1" as="geometry">
                        <mxPoint x="1568.5" y="472" as="sourcePoint"/>
                        <mxPoint x="1579" y="443" as="targetPoint"/>
                    </mxGeometry>
                </mxCell>
                <mxCell id="164" value="" style="endArrow=none;html=1;rounded=0;hachureGap=4;fontFamily=Architects Daughter;fontSource=https%3A%2F%2Ffonts.googleapis.com%2Fcss%3Ffamily%3DArchitects%2BDaughter;fontSize=16;exitX=0;exitY=0.5;exitDx=0;exitDy=0;strokeColor=#030303;entryX=1;entryY=1;entryDx=0;entryDy=0;" parent="1" source="161" target="139" edge="1">
                    <mxGeometry relative="1" as="geometry">
                        <mxPoint x="1474.4999999999995" y="472" as="sourcePoint"/>
                        <mxPoint x="1279" y="292" as="targetPoint"/>
                    </mxGeometry>
                </mxCell>
                <mxCell id="165" value="dirigido" style="shape=rhombus;perimeter=rhombusPerimeter;whiteSpace=wrap;html=1;align=center;sketch=0;hachureGap=4;jiggle=2;curveFitting=1;fontFamily=Architects Daughter;fontSource=https%3A%2F%2Ffonts.googleapis.com%2Fcss%3Ffamily%3DArchitects%2BDaughter;fontSize=20;fillColor=#f5f5f5;fontColor=#333333;strokeColor=#666666;" parent="1" vertex="1">
                    <mxGeometry x="1461.5" y="331" width="99" height="51" as="geometry"/>
                </mxCell>
                <mxCell id="166" value="" style="endArrow=none;html=1;rounded=0;hachureGap=4;fontFamily=Architects Daughter;fontSource=https%3A%2F%2Ffonts.googleapis.com%2Fcss%3Ffamily%3DArchitects%2BDaughter;fontSize=16;entryX=0.5;entryY=1;entryDx=0;entryDy=0;exitX=0.5;exitY=0;exitDx=0;exitDy=0;strokeColor=#030303;" parent="1" source="165" target="149" edge="1">
                    <mxGeometry relative="1" as="geometry">
                        <mxPoint x="1574.5" y="364.5" as="sourcePoint"/>
                        <mxPoint x="1574" y="284.4999999999999" as="targetPoint"/>
                    </mxGeometry>
                </mxCell>
                <mxCell id="167" value="1,1" style="text;html=1;align=center;verticalAlign=middle;resizable=0;points=[];autosize=1;strokeColor=none;fillColor=none;fontSize=20;fontFamily=Verdana;fontColor=#000000;sketch=1;hachureGap=4;jiggle=2;curveFitting=1;fontSource=https%3A%2F%2Ffonts.googleapis.com%2Fcss%3Ffamily%3DArchitects%2BDaughter;" parent="1" vertex="1">
                    <mxGeometry x="1513" y="259.1" width="43" height="36" as="geometry"/>
                </mxCell>
                <mxCell id="169" value="" style="edgeStyle=none;sketch=0;hachureGap=4;jiggle=2;curveFitting=1;html=1;strokeColor=#030303;fontFamily=Verdana;fontSize=16;fontColor=#000000;endSize=10;" parent="1" source="168" target="111" edge="1">
                    <mxGeometry relative="1" as="geometry"/>
                </mxCell>
                <mxCell id="168" value="1,1" style="text;html=1;align=center;verticalAlign=middle;resizable=0;points=[];autosize=1;strokeColor=none;fillColor=none;fontSize=20;fontFamily=Verdana;fontColor=#000000;sketch=1;hachureGap=4;jiggle=2;curveFitting=1;fontSource=https%3A%2F%2Ffonts.googleapis.com%2Fcss%3Ffamily%3DArchitects%2BDaughter;" parent="1" vertex="1">
                    <mxGeometry x="1513" y="426" width="43" height="36" as="geometry"/>
                </mxCell>
                <mxCell id="170" value="1,1" style="text;html=1;align=center;verticalAlign=middle;resizable=0;points=[];autosize=1;strokeColor=none;fillColor=none;fontSize=20;fontFamily=Verdana;fontColor=#000000;sketch=1;hachureGap=4;jiggle=2;curveFitting=1;fontSource=https%3A%2F%2Ffonts.googleapis.com%2Fcss%3Ffamily%3DArchitects%2BDaughter;" parent="1" vertex="1">
                    <mxGeometry x="1451" y="426" width="43" height="36" as="geometry"/>
                </mxCell>
                <mxCell id="173" value="&lt;span style=&quot;font-family: Verdana;&quot;&gt;1,*&lt;/span&gt;" style="resizable=0;html=1;align=left;verticalAlign=bottom;sketch=0;hachureGap=4;jiggle=2;curveFitting=1;fontFamily=Architects Daughter;fontSource=https%3A%2F%2Ffonts.googleapis.com%2Fcss%3Ffamily%3DArchitects%2BDaughter;fontSize=20;fontColor=#000000;fillColor=#1D1D1D;" parent="1" connectable="0" vertex="1">
                    <mxGeometry x="1286" y="268" as="geometry"/>
                </mxCell>
                <mxCell id="179" value="&lt;font face=&quot;Verdana&quot;&gt;Nombre-S&lt;/font&gt;" style="ellipse;whiteSpace=wrap;html=1;align=center;sketch=0;hachureGap=4;jiggle=2;curveFitting=1;fontFamily=Architects Daughter;fontSource=https%3A%2F%2Ffonts.googleapis.com%2Fcss%3Ffamily%3DArchitects%2BDaughter;fontSize=20;fillColor=#f5f5f5;fontColor=#333333;strokeColor=#666666;" parent="1" vertex="1">
                    <mxGeometry x="559" y="393" width="100" height="40" as="geometry"/>
                </mxCell>
                <mxCell id="180" value="" style="endArrow=none;html=1;rounded=0;hachureGap=4;fontFamily=Architects Daughter;fontSource=https%3A%2F%2Ffonts.googleapis.com%2Fcss%3Ffamily%3DArchitects%2BDaughter;fontSize=16;entryX=0.5;entryY=1;entryDx=0;entryDy=0;exitX=0.5;exitY=0;exitDx=0;exitDy=0;strokeColor=#030303;" parent="1" source="65" target="179" edge="1">
                    <mxGeometry relative="1" as="geometry">
                        <mxPoint x="561" y="534" as="sourcePoint"/>
                        <mxPoint x="594" y="512" as="targetPoint"/>
                    </mxGeometry>
                </mxCell>
                <mxCell id="181" value="&lt;font face=&quot;Verdana&quot;&gt;Fecha de inicio&lt;/font&gt;" style="ellipse;whiteSpace=wrap;html=1;align=center;sketch=0;hachureGap=4;jiggle=2;curveFitting=1;fontFamily=Architects Daughter;fontSource=https%3A%2F%2Ffonts.googleapis.com%2Fcss%3Ffamily%3DArchitects%2BDaughter;fontSize=20;fillColor=#f5f5f5;fontColor=#333333;strokeColor=#666666;" parent="1" vertex="1">
                    <mxGeometry x="398" y="522" width="144" height="49" as="geometry"/>
                </mxCell>
                <mxCell id="182" value="&lt;font face=&quot;Verdana&quot;&gt;Fecha de fin&lt;/font&gt;" style="ellipse;whiteSpace=wrap;html=1;align=center;sketch=0;hachureGap=4;jiggle=2;curveFitting=1;fontFamily=Architects Daughter;fontSource=https%3A%2F%2Ffonts.googleapis.com%2Fcss%3Ffamily%3DArchitects%2BDaughter;fontSize=20;fillColor=#f5f5f5;fontColor=#333333;strokeColor=#666666;" parent="1" vertex="1">
                    <mxGeometry x="537" y="553" width="119" height="49" as="geometry"/>
                </mxCell>
                <mxCell id="184" value="" style="endArrow=none;html=1;rounded=0;hachureGap=4;fontFamily=Architects Daughter;fontSource=https%3A%2F%2Ffonts.googleapis.com%2Fcss%3Ffamily%3DArchitects%2BDaughter;fontSize=16;entryX=0.5;entryY=1;entryDx=0;entryDy=0;exitX=0.5;exitY=0;exitDx=0;exitDy=0;strokeColor=#030303;" parent="1" source="182" target="65" edge="1">
                    <mxGeometry relative="1" as="geometry">
                        <mxPoint x="491.5" y="534" as="sourcePoint"/>
                        <mxPoint x="594" y="512" as="targetPoint"/>
                    </mxGeometry>
                </mxCell>
                <mxCell id="185" value="Serie" style="shape=ext;margin=3;double=1;whiteSpace=wrap;html=1;align=center;sketch=0;hachureGap=4;jiggle=2;curveFitting=1;strokeWidth=2;fontFamily=Verdana;fontSize=20;fontColor=#333333;fillColor=#f5f5f5;strokeColor=#666666;" parent="1" vertex="1">
                    <mxGeometry x="74" y="789" width="100" height="40" as="geometry"/>
                </mxCell>
                <mxCell id="186" value="&lt;font face=&quot;Verdana&quot;&gt;Equipo&lt;/font&gt;" style="whiteSpace=wrap;html=1;align=center;sketch=0;hachureGap=4;jiggle=2;curveFitting=1;fontFamily=Architects Daughter;fontSource=https%3A%2F%2Ffonts.googleapis.com%2Fcss%3Ffamily%3DArchitects%2BDaughter;fontSize=20;fillColor=#f5f5f5;fontColor=#333333;strokeColor=#666666;" parent="1" vertex="1">
                    <mxGeometry x="269" y="900" width="100" height="40" as="geometry"/>
                </mxCell>
                <mxCell id="187" value="&lt;font face=&quot;Verdana&quot;&gt;Pelotero&lt;/font&gt;" style="whiteSpace=wrap;html=1;align=center;sketch=0;hachureGap=4;jiggle=2;curveFitting=1;fontFamily=Architects Daughter;fontSource=https%3A%2F%2Ffonts.googleapis.com%2Fcss%3Ffamily%3DArchitects%2BDaughter;fontSize=20;fillColor=#f5f5f5;fontColor=#333333;strokeColor=#666666;" parent="1" vertex="1">
                    <mxGeometry x="463" y="789" width="125" height="40" as="geometry"/>
                </mxCell>
                <mxCell id="188" value="participa" style="shape=rhombus;perimeter=rhombusPerimeter;whiteSpace=wrap;html=1;align=center;sketch=0;hachureGap=4;jiggle=2;curveFitting=1;fontFamily=Architects Daughter;fontSource=https%3A%2F%2Ffonts.googleapis.com%2Fcss%3Ffamily%3DArchitects%2BDaughter;fontSize=20;fillColor=#f5f5f5;fontColor=#333333;strokeColor=#666666;" parent="1" vertex="1">
                    <mxGeometry x="244.5" y="780" width="148" height="58" as="geometry"/>
                </mxCell>
                <mxCell id="189" value="" style="endArrow=none;html=1;rounded=0;sketch=0;hachureGap=4;jiggle=2;curveFitting=1;strokeColor=#030303;fontFamily=Architects Daughter;fontSource=https%3A%2F%2Ffonts.googleapis.com%2Fcss%3Ffamily%3DArchitects%2BDaughter;fontSize=16;fontColor=#000000;exitX=1;exitY=0.5;exitDx=0;exitDy=0;entryX=0;entryY=0.5;entryDx=0;entryDy=0;" parent="1" source="185" target="188" edge="1">
                    <mxGeometry relative="1" as="geometry">
                        <mxPoint x="180" y="808.1700000000001" as="sourcePoint"/>
                        <mxPoint x="244" y="808" as="targetPoint"/>
                    </mxGeometry>
                </mxCell>
                <mxCell id="190" value="&lt;font face=&quot;Verdana&quot;&gt;1,*&lt;/font&gt;" style="resizable=0;html=1;align=left;verticalAlign=bottom;sketch=0;hachureGap=4;jiggle=2;curveFitting=1;fontFamily=Architects Daughter;fontSource=https%3A%2F%2Ffonts.googleapis.com%2Fcss%3Ffamily%3DArchitects%2BDaughter;fontSize=20;fontColor=#000000;fillColor=#1D1D1D;" parent="189" connectable="0" vertex="1">
                    <mxGeometry x="-1" relative="1" as="geometry">
                        <mxPoint x="7" y="1" as="offset"/>
                    </mxGeometry>
                </mxCell>
                <mxCell id="191" value="" style="resizable=0;html=1;align=right;verticalAlign=bottom;sketch=0;hachureGap=4;jiggle=2;curveFitting=1;fontFamily=Architects Daughter;fontSource=https%3A%2F%2Ffonts.googleapis.com%2Fcss%3Ffamily%3DArchitects%2BDaughter;fontSize=20;fontColor=#000000;fillColor=#1D1D1D;" parent="189" connectable="0" vertex="1">
                    <mxGeometry x="1" relative="1" as="geometry"/>
                </mxCell>
                <mxCell id="199" value="" style="endArrow=none;html=1;rounded=0;sketch=0;hachureGap=4;jiggle=2;curveFitting=1;strokeColor=#030303;fontFamily=Architects Daughter;fontSource=https%3A%2F%2Ffonts.googleapis.com%2Fcss%3Ffamily%3DArchitects%2BDaughter;fontSize=16;fontColor=#000000;entryX=0;entryY=0.5;entryDx=0;entryDy=0;exitX=1;exitY=0.5;exitDx=0;exitDy=0;" parent="1" source="188" target="187" edge="1">
                    <mxGeometry relative="1" as="geometry">
                        <mxPoint x="394" y="809" as="sourcePoint"/>
                        <mxPoint x="463" y="811" as="targetPoint"/>
                    </mxGeometry>
                </mxCell>
                <mxCell id="200" value="" style="resizable=0;html=1;align=left;verticalAlign=bottom;sketch=0;hachureGap=4;jiggle=2;curveFitting=1;fontFamily=Architects Daughter;fontSource=https%3A%2F%2Ffonts.googleapis.com%2Fcss%3Ffamily%3DArchitects%2BDaughter;fontSize=20;fontColor=#000000;fillColor=#1D1D1D;" parent="199" connectable="0" vertex="1">
                    <mxGeometry x="-1" relative="1" as="geometry"/>
                </mxCell>
                <mxCell id="201" value="" style="resizable=0;html=1;align=right;verticalAlign=bottom;sketch=0;hachureGap=4;jiggle=2;curveFitting=1;fontFamily=Architects Daughter;fontSource=https%3A%2F%2Ffonts.googleapis.com%2Fcss%3Ffamily%3DArchitects%2BDaughter;fontSize=20;fontColor=#000000;fillColor=#1D1D1D;" parent="199" connectable="0" vertex="1">
                    <mxGeometry x="1" relative="1" as="geometry">
                        <mxPoint x="-41" y="-1" as="offset"/>
                    </mxGeometry>
                </mxCell>
                <mxCell id="202" value="*,*" style="text;html=1;align=center;verticalAlign=middle;resizable=0;points=[];autosize=1;strokeColor=none;fillColor=none;fontSize=20;fontFamily=Verdana;fontColor=#000000;sketch=1;hachureGap=4;jiggle=2;curveFitting=1;fontSource=https%3A%2F%2Ffonts.googleapis.com%2Fcss%3Ffamily%3DArchitects%2BDaughter;" parent="1" vertex="1">
                    <mxGeometry x="410" y="778" width="43" height="36" as="geometry"/>
                </mxCell>
                <mxCell id="204" value="" style="endArrow=none;html=1;rounded=0;hachureGap=4;fontFamily=Architects Daughter;fontSource=https%3A%2F%2Ffonts.googleapis.com%2Fcss%3Ffamily%3DArchitects%2BDaughter;fontSize=16;exitX=0.5;exitY=0;exitDx=0;exitDy=0;strokeColor=#030303;entryX=0.5;entryY=1;entryDx=0;entryDy=0;" parent="1" source="186" target="188" edge="1">
                    <mxGeometry relative="1" as="geometry">
                        <mxPoint x="316.5" y="900" as="sourcePoint"/>
                        <mxPoint x="322" y="840" as="targetPoint"/>
                    </mxGeometry>
                </mxCell>
                <mxCell id="205" value="" style="edgeStyle=none;sketch=0;hachureGap=4;jiggle=2;curveFitting=1;html=1;strokeColor=#030303;fontFamily=Verdana;fontSize=16;fontColor=#000000;endSize=10;" parent="1" source="206" edge="1">
                    <mxGeometry relative="1" as="geometry">
                        <mxPoint x="328.605263157895" y="900" as="targetPoint"/>
                    </mxGeometry>
                </mxCell>
                <mxCell id="358" value="" style="edgeStyle=none;sketch=1;hachureGap=4;jiggle=2;curveFitting=1;html=1;fontFamily=Verdana;fontSize=17;" parent="1" source="206" target="186" edge="1">
                    <mxGeometry relative="1" as="geometry"/>
                </mxCell>
                <mxCell id="206" value="1,1" style="text;html=1;align=center;verticalAlign=middle;resizable=0;points=[];autosize=1;strokeColor=none;fillColor=none;fontSize=20;fontFamily=Verdana;fontColor=#000000;sketch=1;hachureGap=4;jiggle=2;curveFitting=1;fontSource=https%3A%2F%2Ffonts.googleapis.com%2Fcss%3Ffamily%3DArchitects%2BDaughter;" parent="1" vertex="1">
                    <mxGeometry x="318" y="864" width="43" height="36" as="geometry"/>
                </mxCell>
                <mxCell id="211" value="&lt;font face=&quot;Verdana&quot;&gt;Posición&lt;/font&gt;" style="whiteSpace=wrap;html=1;align=center;sketch=0;hachureGap=4;jiggle=2;curveFitting=1;fontFamily=Architects Daughter;fontSource=https%3A%2F%2Ffonts.googleapis.com%2Fcss%3Ffamily%3DArchitects%2BDaughter;fontSize=20;fillColor=#f5f5f5;fontColor=#333333;strokeColor=#666666;" parent="1" vertex="1">
                    <mxGeometry x="886.73" y="789" width="125" height="40" as="geometry"/>
                </mxCell>
                <mxCell id="212" value="seleccionado" style="shape=rhombus;perimeter=rhombusPerimeter;whiteSpace=wrap;html=1;align=center;sketch=0;hachureGap=4;jiggle=2;curveFitting=1;fontFamily=Architects Daughter;fontSource=https%3A%2F%2Ffonts.googleapis.com%2Fcss%3Ffamily%3DArchitects%2BDaughter;fontSize=20;fillColor=#f5f5f5;fontColor=#333333;strokeColor=#666666;" parent="1" vertex="1">
                    <mxGeometry x="668.23" y="780" width="148" height="58" as="geometry"/>
                </mxCell>
                <mxCell id="213" value="" style="endArrow=none;html=1;rounded=0;sketch=0;hachureGap=4;jiggle=2;curveFitting=1;strokeColor=#030303;fontFamily=Architects Daughter;fontSource=https%3A%2F%2Ffonts.googleapis.com%2Fcss%3Ffamily%3DArchitects%2BDaughter;fontSize=16;fontColor=#000000;entryX=0;entryY=0.5;entryDx=0;entryDy=0;exitX=1;exitY=0.5;exitDx=0;exitDy=0;" parent="1" source="187" target="212" edge="1">
                    <mxGeometry relative="1" as="geometry">
                        <mxPoint x="612" y="819" as="sourcePoint"/>
                        <mxPoint x="661" y="805" as="targetPoint"/>
                    </mxGeometry>
                </mxCell>
                <mxCell id="214" value="&lt;font face=&quot;Verdana&quot;&gt;1,1&lt;/font&gt;" style="resizable=0;html=1;align=left;verticalAlign=bottom;sketch=0;hachureGap=4;jiggle=2;curveFitting=1;fontFamily=Architects Daughter;fontSource=https%3A%2F%2Ffonts.googleapis.com%2Fcss%3Ffamily%3DArchitects%2BDaughter;fontSize=20;fontColor=#000000;fillColor=#1D1D1D;" parent="213" connectable="0" vertex="1">
                    <mxGeometry x="-1" relative="1" as="geometry">
                        <mxPoint x="7" y="1" as="offset"/>
                    </mxGeometry>
                </mxCell>
                <mxCell id="215" value="" style="resizable=0;html=1;align=right;verticalAlign=bottom;sketch=0;hachureGap=4;jiggle=2;curveFitting=1;fontFamily=Architects Daughter;fontSource=https%3A%2F%2Ffonts.googleapis.com%2Fcss%3Ffamily%3DArchitects%2BDaughter;fontSize=20;fontColor=#000000;fillColor=#1D1D1D;" parent="213" connectable="0" vertex="1">
                    <mxGeometry x="1" relative="1" as="geometry"/>
                </mxCell>
                <mxCell id="216" value="" style="endArrow=none;html=1;rounded=0;sketch=0;hachureGap=4;jiggle=2;curveFitting=1;strokeColor=#030303;fontFamily=Architects Daughter;fontSource=https%3A%2F%2Ffonts.googleapis.com%2Fcss%3Ffamily%3DArchitects%2BDaughter;fontSize=16;fontColor=#000000;entryX=0;entryY=0.5;entryDx=0;entryDy=0;exitX=1;exitY=0.5;exitDx=0;exitDy=0;" parent="1" source="212" target="211" edge="1">
                    <mxGeometry relative="1" as="geometry">
                        <mxPoint x="817.73" y="809" as="sourcePoint"/>
                        <mxPoint x="886.73" y="811" as="targetPoint"/>
                    </mxGeometry>
                </mxCell>
                <mxCell id="217" value="" style="resizable=0;html=1;align=left;verticalAlign=bottom;sketch=0;hachureGap=4;jiggle=2;curveFitting=1;fontFamily=Architects Daughter;fontSource=https%3A%2F%2Ffonts.googleapis.com%2Fcss%3Ffamily%3DArchitects%2BDaughter;fontSize=20;fontColor=#000000;fillColor=#1D1D1D;" parent="216" connectable="0" vertex="1">
                    <mxGeometry x="-1" relative="1" as="geometry"/>
                </mxCell>
                <mxCell id="218" value="" style="resizable=0;html=1;align=right;verticalAlign=bottom;sketch=0;hachureGap=4;jiggle=2;curveFitting=1;fontFamily=Architects Daughter;fontSource=https%3A%2F%2Ffonts.googleapis.com%2Fcss%3Ffamily%3DArchitects%2BDaughter;fontSize=20;fontColor=#000000;fillColor=#1D1D1D;" parent="216" connectable="0" vertex="1">
                    <mxGeometry x="1" relative="1" as="geometry">
                        <mxPoint x="-41" y="-1" as="offset"/>
                    </mxGeometry>
                </mxCell>
                <mxCell id="219" value="1,*" style="text;html=1;align=center;verticalAlign=middle;resizable=0;points=[];autosize=1;strokeColor=none;fillColor=none;fontSize=20;fontFamily=Verdana;fontColor=#000000;sketch=1;hachureGap=4;jiggle=2;curveFitting=1;fontSource=https%3A%2F%2Ffonts.googleapis.com%2Fcss%3Ffamily%3DArchitects%2BDaughter;" parent="1" vertex="1">
                    <mxGeometry x="843.73" y="780" width="43" height="36" as="geometry"/>
                </mxCell>
                <mxCell id="220" value="" style="endArrow=none;html=1;rounded=0;hachureGap=4;fontFamily=Architects Daughter;fontSource=https%3A%2F%2Ffonts.googleapis.com%2Fcss%3Ffamily%3DArchitects%2BDaughter;fontSize=16;exitX=0.5;exitY=0;exitDx=0;exitDy=0;strokeColor=#030303;entryX=0.5;entryY=1;entryDx=0;entryDy=0;" parent="1" source="223" target="212" edge="1">
                    <mxGeometry relative="1" as="geometry">
                        <mxPoint x="742.7300000000002" y="900" as="sourcePoint"/>
                        <mxPoint x="745.73" y="840" as="targetPoint"/>
                    </mxGeometry>
                </mxCell>
                <mxCell id="221" value="" style="edgeStyle=none;sketch=0;hachureGap=4;jiggle=2;curveFitting=1;html=1;strokeColor=#030303;fontFamily=Verdana;fontSize=16;fontColor=#000000;endSize=10;" parent="1" source="222" edge="1">
                    <mxGeometry relative="1" as="geometry">
                        <mxPoint x="752.335263157895" y="900" as="targetPoint"/>
                    </mxGeometry>
                </mxCell>
                <mxCell id="222" value="1,*" style="text;html=1;align=center;verticalAlign=middle;resizable=0;points=[];autosize=1;strokeColor=none;fillColor=none;fontSize=20;fontFamily=Verdana;fontColor=#000000;sketch=1;hachureGap=4;jiggle=2;curveFitting=1;fontSource=https%3A%2F%2Ffonts.googleapis.com%2Fcss%3Ffamily%3DArchitects%2BDaughter;" parent="1" vertex="1">
                    <mxGeometry x="741.73" y="864" width="43" height="36" as="geometry"/>
                </mxCell>
                <mxCell id="223" value="Serie" style="shape=ext;margin=3;double=1;whiteSpace=wrap;html=1;align=center;sketch=0;hachureGap=4;jiggle=2;curveFitting=1;strokeWidth=2;fontFamily=Verdana;fontSize=20;fontColor=#333333;fillColor=#f5f5f5;strokeColor=#666666;" parent="1" vertex="1">
                    <mxGeometry x="692.23" y="902" width="100" height="40" as="geometry"/>
                </mxCell>
                <mxCell id="224" value="&lt;font face=&quot;Verdana&quot;&gt;P-ID&lt;/font&gt;" style="ellipse;whiteSpace=wrap;html=1;align=center;fontStyle=4;sketch=0;hachureGap=4;jiggle=2;curveFitting=1;fontFamily=Architects Daughter;fontSource=https%3A%2F%2Ffonts.googleapis.com%2Fcss%3Ffamily%3DArchitects%2BDaughter;fontSize=20;fillColor=#f5f5f5;fontColor=#333333;strokeColor=#666666;" parent="1" vertex="1">
                    <mxGeometry x="898.5" y="733" width="100" height="40" as="geometry"/>
                </mxCell>
                <mxCell id="225" value="&lt;font face=&quot;Verdana&quot;&gt;Nombre-O&lt;/font&gt;" style="ellipse;whiteSpace=wrap;html=1;align=center;sketch=0;hachureGap=4;jiggle=2;curveFitting=1;fontFamily=Architects Daughter;fontSource=https%3A%2F%2Ffonts.googleapis.com%2Fcss%3Ffamily%3DArchitects%2BDaughter;fontSize=20;fillColor=#f5f5f5;fontColor=#333333;strokeColor=#666666;" parent="1" vertex="1">
                    <mxGeometry x="899.23" y="847" width="100" height="40" as="geometry"/>
                </mxCell>
                <mxCell id="226" value="" style="endArrow=none;html=1;rounded=0;hachureGap=4;fontFamily=Architects Daughter;fontSource=https%3A%2F%2Ffonts.googleapis.com%2Fcss%3Ffamily%3DArchitects%2BDaughter;fontSize=16;entryX=0.5;entryY=1;entryDx=0;entryDy=0;exitX=0.5;exitY=0;exitDx=0;exitDy=0;strokeColor=#030303;" parent="1" source="211" target="224" edge="1">
                    <mxGeometry relative="1" as="geometry">
                        <mxPoint x="568.5000000000002" y="563" as="sourcePoint"/>
                        <mxPoint x="581" y="512" as="targetPoint"/>
                    </mxGeometry>
                </mxCell>
                <mxCell id="227" value="" style="endArrow=none;html=1;rounded=0;hachureGap=4;fontFamily=Architects Daughter;fontSource=https%3A%2F%2Ffonts.googleapis.com%2Fcss%3Ffamily%3DArchitects%2BDaughter;fontSize=16;entryX=0.5;entryY=1;entryDx=0;entryDy=0;exitX=0.5;exitY=0;exitDx=0;exitDy=0;strokeColor=#030303;" parent="1" source="225" target="211" edge="1">
                    <mxGeometry relative="1" as="geometry">
                        <mxPoint x="959.23" y="799" as="sourcePoint"/>
                        <mxPoint x="958.5000000000002" y="776" as="targetPoint"/>
                    </mxGeometry>
                </mxCell>
                <mxCell id="236" value="" style="endArrow=none;html=1;rounded=0;hachureGap=4;fontFamily=Architects Daughter;fontSource=https%3A%2F%2Ffonts.googleapis.com%2Fcss%3Ffamily%3DArchitects%2BDaughter;fontSize=16;strokeColor=#030303;exitX=1;exitY=0.5;exitDx=0;exitDy=0;" parent="1" edge="1">
                    <mxGeometry relative="1" as="geometry">
                        <mxPoint x="1012.6100000000001" y="807.5600000000001" as="sourcePoint"/>
                        <mxPoint x="1117" y="808" as="targetPoint"/>
                    </mxGeometry>
                </mxCell>
                <mxCell id="237" value="" style="html=1;shadow=0;dashed=0;shape=mxgraph.basic.arc;startAngle=0.24657784054822296;endAngle=0.7468797146831239;strokeWidth=2;strokeColor=#6C767D;sketch=0;hachureGap=4;jiggle=2;curveFitting=1;fontFamily=Verdana;fontSize=20;fontColor=#000000;fillColor=#1D1D1D;rotation=-90;" parent="1" vertex="1">
                    <mxGeometry x="1048.1100000000001" y="791.5600000000001" width="26.73" height="34.89" as="geometry"/>
                </mxCell>
                <mxCell id="238" value="&lt;font face=&quot;Verdana&quot;&gt;Pitch&lt;/font&gt;" style="whiteSpace=wrap;html=1;align=center;sketch=0;hachureGap=4;jiggle=2;curveFitting=1;fontFamily=Architects Daughter;fontSource=https%3A%2F%2Ffonts.googleapis.com%2Fcss%3Ffamily%3DArchitects%2BDaughter;fontSize=20;fillColor=#f5f5f5;fontColor=#333333;strokeColor=#666666;" parent="1" vertex="1">
                    <mxGeometry x="1111" y="791.56" width="125" height="40" as="geometry"/>
                </mxCell>
                <mxCell id="239" value="&lt;u&gt;P-ID&lt;/u&gt;" style="ellipse;whiteSpace=wrap;html=1;align=center;dashed=1;sketch=0;hachureGap=4;jiggle=2;curveFitting=1;strokeWidth=2;fontFamily=Verdana;fontSize=20;fontColor=#333333;fillColor=#f5f5f5;strokeColor=#666666;" parent="1" vertex="1">
                    <mxGeometry x="1123.5" y="733" width="100" height="40" as="geometry"/>
                </mxCell>
                <mxCell id="240" value="" style="endArrow=none;html=1;rounded=0;hachureGap=4;fontFamily=Architects Daughter;fontSource=https%3A%2F%2Ffonts.googleapis.com%2Fcss%3Ffamily%3DArchitects%2BDaughter;fontSize=16;entryX=0.5;entryY=1;entryDx=0;entryDy=0;exitX=0.5;exitY=0;exitDx=0;exitDy=0;strokeColor=#030303;" parent="1" source="238" target="239" edge="1">
                    <mxGeometry relative="1" as="geometry">
                        <mxPoint x="959.23" y="799" as="sourcePoint"/>
                        <mxPoint x="958.5" y="783" as="targetPoint"/>
                    </mxGeometry>
                </mxCell>
                <mxCell id="241" value="esta" style="shape=rhombus;perimeter=rhombusPerimeter;whiteSpace=wrap;html=1;align=center;sketch=0;hachureGap=4;jiggle=2;curveFitting=1;fontFamily=Architects Daughter;fontSource=https%3A%2F%2Ffonts.googleapis.com%2Fcss%3Ffamily%3DArchitects%2BDaughter;fontSize=20;fillColor=#f5f5f5;fontColor=#333333;strokeColor=#666666;" parent="1" vertex="1">
                    <mxGeometry x="1291" y="785.5" width="99" height="51" as="geometry"/>
                </mxCell>
                <mxCell id="242" value="" style="resizable=0;html=1;align=left;verticalAlign=bottom;sketch=0;hachureGap=4;jiggle=2;curveFitting=1;fontFamily=Architects Daughter;fontSource=https%3A%2F%2Ffonts.googleapis.com%2Fcss%3Ffamily%3DArchitects%2BDaughter;fontSize=20;fontColor=#000000;fillColor=#1D1D1D;" parent="1" connectable="0" vertex="1">
                    <mxGeometry x="1386.5" y="811.25" as="geometry"/>
                </mxCell>
                <mxCell id="244" value="" style="endArrow=none;html=1;rounded=0;sketch=0;hachureGap=4;jiggle=2;curveFitting=1;strokeColor=#030303;fontFamily=Architects Daughter;fontSource=https%3A%2F%2Ffonts.googleapis.com%2Fcss%3Ffamily%3DArchitects%2BDaughter;fontSize=16;fontColor=#000000;entryX=0;entryY=0.5;entryDx=0;entryDy=0;exitX=1;exitY=0.5;exitDx=0;exitDy=0;" parent="1" source="241" target="252" edge="1">
                    <mxGeometry relative="1" as="geometry">
                        <mxPoint x="1405.5000000000002" y="811.2500000000002" as="sourcePoint"/>
                        <mxPoint x="1485" y="811" as="targetPoint"/>
                    </mxGeometry>
                </mxCell>
                <mxCell id="245" value="" style="resizable=0;html=1;align=left;verticalAlign=bottom;sketch=0;hachureGap=4;jiggle=2;curveFitting=1;fontFamily=Architects Daughter;fontSource=https%3A%2F%2Ffonts.googleapis.com%2Fcss%3Ffamily%3DArchitects%2BDaughter;fontSize=20;fontColor=#000000;fillColor=#1D1D1D;" parent="244" connectable="0" vertex="1">
                    <mxGeometry x="-1" relative="1" as="geometry"/>
                </mxCell>
                <mxCell id="246" value="" style="resizable=0;html=1;align=right;verticalAlign=bottom;sketch=0;hachureGap=4;jiggle=2;curveFitting=1;fontFamily=Architects Daughter;fontSource=https%3A%2F%2Ffonts.googleapis.com%2Fcss%3Ffamily%3DArchitects%2BDaughter;fontSize=20;fontColor=#000000;fillColor=#1D1D1D;" parent="244" connectable="0" vertex="1">
                    <mxGeometry x="1" relative="1" as="geometry">
                        <mxPoint x="-41" y="-1" as="offset"/>
                    </mxGeometry>
                </mxCell>
                <mxCell id="247" value="1,*" style="text;html=1;align=center;verticalAlign=middle;resizable=0;points=[];autosize=1;strokeColor=none;fillColor=none;fontSize=20;fontFamily=Verdana;fontColor=#000000;sketch=1;hachureGap=4;jiggle=2;curveFitting=1;fontSource=https%3A%2F%2Ffonts.googleapis.com%2Fcss%3Ffamily%3DArchitects%2BDaughter;" parent="1" vertex="1">
                    <mxGeometry x="1404" y="780" width="43" height="36" as="geometry"/>
                </mxCell>
                <mxCell id="248" value="" style="endArrow=none;html=1;rounded=0;sketch=0;hachureGap=4;jiggle=2;curveFitting=1;strokeColor=#030303;fontFamily=Architects Daughter;fontSource=https%3A%2F%2Ffonts.googleapis.com%2Fcss%3Ffamily%3DArchitects%2BDaughter;fontSize=16;fontColor=#000000;entryX=0;entryY=0.5;entryDx=0;entryDy=0;exitX=1;exitY=0.5;exitDx=0;exitDy=0;" parent="1" source="238" target="241" edge="1">
                    <mxGeometry relative="1" as="geometry">
                        <mxPoint x="1240.5" y="809" as="sourcePoint"/>
                        <mxPoint x="1344.0000000000002" y="807.9600000000003" as="targetPoint"/>
                    </mxGeometry>
                </mxCell>
                <mxCell id="250" value="" style="resizable=0;html=1;align=right;verticalAlign=bottom;sketch=0;hachureGap=4;jiggle=2;curveFitting=1;fontFamily=Architects Daughter;fontSource=https%3A%2F%2Ffonts.googleapis.com%2Fcss%3Ffamily%3DArchitects%2BDaughter;fontSize=20;fontColor=#000000;fillColor=#1D1D1D;" parent="248" connectable="0" vertex="1">
                    <mxGeometry x="1" relative="1" as="geometry"/>
                </mxCell>
                <mxCell id="251" value="" style="edgeStyle=none;sketch=0;hachureGap=4;jiggle=2;curveFitting=1;html=1;strokeColor=#030303;fontFamily=Verdana;fontSize=16;fontColor=#000000;endSize=10;" parent="1" edge="1">
                    <mxGeometry relative="1" as="geometry">
                        <mxPoint x="1591.1052631578946" y="791.0000000000002" as="sourcePoint"/>
                        <mxPoint x="1591.1052631578946" y="791" as="targetPoint"/>
                    </mxGeometry>
                </mxCell>
                <mxCell id="252" value="&lt;font face=&quot;Verdana&quot;&gt;Pelotero&lt;/font&gt;" style="whiteSpace=wrap;html=1;align=center;sketch=0;hachureGap=4;jiggle=2;curveFitting=1;fontFamily=Architects Daughter;fontSource=https%3A%2F%2Ffonts.googleapis.com%2Fcss%3Ffamily%3DArchitects%2BDaughter;fontSize=20;fillColor=#f5f5f5;fontColor=#333333;strokeColor=#666666;" parent="1" vertex="1">
                    <mxGeometry x="1451" y="791.56" width="125" height="40" as="geometry"/>
                </mxCell>
                <mxCell id="258" value="&lt;font face=&quot;Verdana&quot;&gt;Lanzador&lt;/font&gt;" style="text;strokeColor=none;fillColor=none;html=1;fontSize=24;fontStyle=1;verticalAlign=middle;align=center;shadow=0;sketch=0;hachureGap=4;jiggle=2;curveFitting=1;fontFamily=Architects Daughter;fontSource=https%3A%2F%2Ffonts.googleapis.com%2Fcss%3Ffamily%3DArchitects%2BDaughter;opacity=30;fontColor=#333333;" parent="1" vertex="1">
                    <mxGeometry x="1244.5" y="860" width="204.5" height="40" as="geometry"/>
                </mxCell>
                <mxCell id="259" value="&lt;u&gt;P-ID&lt;/u&gt;" style="ellipse;whiteSpace=wrap;html=1;align=center;dashed=1;sketch=0;hachureGap=4;jiggle=2;curveFitting=1;strokeWidth=2;fontFamily=Verdana;fontSize=20;fontColor=#333333;fillColor=#f5f5f5;strokeColor=#666666;" parent="1" vertex="1">
                    <mxGeometry x="1133" y="661" width="100" height="40" as="geometry"/>
                </mxCell>
                <mxCell id="260" value="&lt;u&gt;CI&lt;/u&gt;" style="ellipse;whiteSpace=wrap;html=1;align=center;dashed=1;sketch=0;hachureGap=4;jiggle=2;curveFitting=1;strokeWidth=2;fontFamily=Verdana;fontSize=20;fontColor=#333333;fillColor=#f5f5f5;strokeColor=#666666;" parent="1" vertex="1">
                    <mxGeometry x="1279.5" y="663" width="100" height="40" as="geometry"/>
                </mxCell>
                <mxCell id="261" value="&lt;font face=&quot;Verdana&quot;&gt;Mano dominante&lt;/font&gt;" style="ellipse;whiteSpace=wrap;html=1;align=center;sketch=0;hachureGap=4;jiggle=2;curveFitting=1;fontFamily=Architects Daughter;fontSource=https%3A%2F%2Ffonts.googleapis.com%2Fcss%3Ffamily%3DArchitects%2BDaughter;fontSize=20;fillColor=#f5f5f5;fontColor=#333333;strokeColor=#666666;" parent="1" vertex="1">
                    <mxGeometry x="1405" y="661" width="168.5" height="40" as="geometry"/>
                </mxCell>
                <mxCell id="262" value="&lt;font face=&quot;Verdana&quot;&gt;No. juegos ganados&lt;/font&gt;" style="ellipse;whiteSpace=wrap;html=1;align=center;sketch=0;hachureGap=4;jiggle=2;curveFitting=1;fontFamily=Architects Daughter;fontSource=https%3A%2F%2Ffonts.googleapis.com%2Fcss%3Ffamily%3DArchitects%2BDaughter;fontSize=20;fillColor=#f5f5f5;fontColor=#333333;strokeColor=#666666;" parent="1" vertex="1">
                    <mxGeometry x="1110.5" y="936" width="183.5" height="40" as="geometry"/>
                </mxCell>
                <mxCell id="263" value="&lt;font face=&quot;Verdana&quot;&gt;No. juegos perdidos&lt;/font&gt;" style="ellipse;whiteSpace=wrap;html=1;align=center;sketch=0;hachureGap=4;jiggle=2;curveFitting=1;fontFamily=Architects Daughter;fontSource=https%3A%2F%2Ffonts.googleapis.com%2Fcss%3Ffamily%3DArchitects%2BDaughter;fontSize=20;fillColor=#f5f5f5;fontColor=#333333;strokeColor=#666666;" parent="1" vertex="1">
                    <mxGeometry x="1405" y="936" width="187" height="40" as="geometry"/>
                </mxCell>
                <mxCell id="264" value="&lt;font face=&quot;Verdana&quot;&gt;Promedio de carreras limpias permitidas&lt;/font&gt;" style="ellipse;whiteSpace=wrap;html=1;align=center;sketch=0;hachureGap=4;jiggle=2;curveFitting=1;fontFamily=Architects Daughter;fontSource=https%3A%2F%2Ffonts.googleapis.com%2Fcss%3Ffamily%3DArchitects%2BDaughter;fontSize=20;fillColor=#f5f5f5;fontColor=#333333;strokeColor=#666666;" parent="1" vertex="1">
                    <mxGeometry x="1236.5" y="972" width="214.5" height="72" as="geometry"/>
                </mxCell>
                <mxCell id="267" value="" style="endArrow=none;html=1;rounded=0;hachureGap=4;fontFamily=Architects Daughter;fontSource=https%3A%2F%2Ffonts.googleapis.com%2Fcss%3Ffamily%3DArchitects%2BDaughter;fontSize=16;exitX=0.5;exitY=1;exitDx=0;exitDy=0;strokeColor=#030303;entryX=0.184;entryY=0.001;entryDx=0;entryDy=0;entryPerimeter=0;" parent="1" source="259" edge="1">
                    <mxGeometry relative="1" as="geometry">
                        <mxPoint x="1183.9999999999998" y="701" as="sourcePoint"/>
                        <mxPoint x="1183.2696799999999" y="723.191" as="targetPoint"/>
                    </mxGeometry>
                </mxCell>
                <mxCell id="268" value="" style="endArrow=none;html=1;rounded=0;hachureGap=4;fontFamily=Architects Daughter;fontSource=https%3A%2F%2Ffonts.googleapis.com%2Fcss%3Ffamily%3DArchitects%2BDaughter;fontSize=16;exitX=0.5;exitY=1;exitDx=0;exitDy=0;strokeColor=#030303;entryX=0.474;entryY=0.002;entryDx=0;entryDy=0;entryPerimeter=0;" parent="1" source="260" edge="1">
                    <mxGeometry relative="1" as="geometry">
                        <mxPoint x="1092" y="512" as="sourcePoint"/>
                        <mxPoint x="1328.7104800000002" y="723.3820000000001" as="targetPoint"/>
                    </mxGeometry>
                </mxCell>
                <mxCell id="269" value="" style="endArrow=none;html=1;rounded=0;hachureGap=4;fontFamily=Architects Daughter;fontSource=https%3A%2F%2Ffonts.googleapis.com%2Fcss%3Ffamily%3DArchitects%2BDaughter;fontSize=16;exitX=0.5;exitY=1;exitDx=0;exitDy=0;strokeColor=#030303;entryX=0.793;entryY=0.005;entryDx=0;entryDy=0;entryPerimeter=0;" parent="1" source="261" edge="1">
                    <mxGeometry relative="1" as="geometry">
                        <mxPoint x="1092" y="512" as="sourcePoint"/>
                        <mxPoint x="1488.6953600000002" y="723.9550000000002" as="targetPoint"/>
                    </mxGeometry>
                </mxCell>
                <mxCell id="270" value="" style="endArrow=none;html=1;rounded=0;hachureGap=4;fontFamily=Architects Daughter;fontSource=https%3A%2F%2Ffonts.googleapis.com%2Fcss%3Ffamily%3DArchitects%2BDaughter;fontSize=16;entryX=0.5;entryY=0;entryDx=0;entryDy=0;exitX=0.221;exitY=1.005;exitDx=0;exitDy=0;strokeColor=#030303;exitPerimeter=0;" parent="1" target="262" edge="1">
                    <mxGeometry relative="1" as="geometry">
                        <mxPoint x="1201.8259199999998" y="914.9549999999999" as="sourcePoint"/>
                        <mxPoint x="958.5000000000002" y="568" as="targetPoint"/>
                    </mxGeometry>
                </mxCell>
                <mxCell id="271" value="" style="endArrow=none;html=1;rounded=0;hachureGap=4;fontFamily=Architects Daughter;fontSource=https%3A%2F%2Ffonts.googleapis.com%2Fcss%3Ffamily%3DArchitects%2BDaughter;fontSize=16;strokeColor=#030303;entryX=0.5;entryY=0;entryDx=0;entryDy=0;exitX=0.813;exitY=1.008;exitDx=0;exitDy=0;exitPerimeter=0;" parent="1" target="263" edge="1">
                    <mxGeometry relative="1" as="geometry">
                        <mxPoint x="1498.7257599999998" y="915.528" as="sourcePoint"/>
                        <mxPoint x="1112" y="575" as="targetPoint"/>
                    </mxGeometry>
                </mxCell>
                <mxCell id="273" value="" style="endArrow=none;html=1;rounded=0;hachureGap=4;fontFamily=Architects Daughter;fontSource=https%3A%2F%2Ffonts.googleapis.com%2Fcss%3Ffamily%3DArchitects%2BDaughter;fontSize=16;exitX=0.504;exitY=1.001;exitDx=0;exitDy=0;strokeColor=#030303;entryX=0.5;entryY=0;entryDx=0;entryDy=0;exitPerimeter=0;" parent="1" target="264" edge="1">
                    <mxGeometry relative="1" as="geometry">
                        <mxPoint x="1343.75608" y="914.191" as="sourcePoint"/>
                        <mxPoint x="1112" y="575" as="targetPoint"/>
                    </mxGeometry>
                </mxCell>
                <mxCell id="274" value="0,1" style="text;html=1;align=center;verticalAlign=middle;resizable=0;points=[];autosize=1;strokeColor=none;fillColor=none;fontSize=20;fontFamily=Verdana;fontColor=#000000;sketch=1;hachureGap=4;jiggle=2;curveFitting=1;fontSource=https%3A%2F%2Ffonts.googleapis.com%2Fcss%3Ffamily%3DArchitects%2BDaughter;" parent="1" vertex="1">
                    <mxGeometry x="1242.5" y="780.44" width="43" height="36" as="geometry"/>
                </mxCell>
                <mxCell id="278" value="" style="swimlane;startSize=0;shadow=0;sketch=0;hachureGap=4;jiggle=2;curveFitting=1;strokeColor=#1A1A1A;fontFamily=Verdana;fontSize=20;fillColor=none;gradientColor=none;opacity=30;swimlaneFillColor=none;" parent="1" vertex="1">
                    <mxGeometry x="451" y="718" width="594" height="283" as="geometry"/>
                </mxCell>
                <mxCell id="231" value="&lt;font face=&quot;Verdana&quot;&gt;Jugador estrella&lt;/font&gt;" style="text;strokeColor=none;fillColor=none;html=1;fontSize=24;fontStyle=1;verticalAlign=middle;align=center;shadow=0;sketch=0;hachureGap=4;jiggle=2;curveFitting=1;fontFamily=Architects Daughter;fontSource=https%3A%2F%2Ffonts.googleapis.com%2Fcss%3Ffamily%3DArchitects%2BDaughter;opacity=30;fontColor=#333333;" parent="278" vertex="1">
                    <mxGeometry x="188.98000000000002" y="234" width="204.5" height="40" as="geometry"/>
                </mxCell>
                <mxCell id="279" value="" style="swimlane;startSize=0;shadow=0;sketch=0;hachureGap=4;jiggle=2;curveFitting=1;strokeColor=#1A1A1A;fontFamily=Verdana;fontSize=20;fillColor=none;gradientColor=none;opacity=30;" parent="1" vertex="1">
                    <mxGeometry x="1095" y="723" width="499" height="192" as="geometry"/>
                </mxCell>
                <mxCell id="283" value="juega" style="shape=rhombus;perimeter=rhombusPerimeter;whiteSpace=wrap;html=1;align=center;sketch=0;hachureGap=4;jiggle=2;curveFitting=1;fontFamily=Architects Daughter;fontSource=https%3A%2F%2Ffonts.googleapis.com%2Fcss%3Ffamily%3DArchitects%2BDaughter;fontSize=20;fillColor=#f5f5f5;fontColor=#333333;strokeColor=#666666;" parent="1" vertex="1">
                    <mxGeometry x="329.5" y="1176" width="148" height="58" as="geometry"/>
                </mxCell>
                <mxCell id="284" value="" style="endArrow=none;html=1;rounded=0;sketch=0;hachureGap=4;jiggle=2;curveFitting=1;strokeColor=#030303;fontFamily=Architects Daughter;fontSource=https%3A%2F%2Ffonts.googleapis.com%2Fcss%3Ffamily%3DArchitects%2BDaughter;fontSize=16;fontColor=#000000;exitX=1;exitY=0.5;exitDx=0;exitDy=0;entryX=0;entryY=0.5;entryDx=0;entryDy=0;" parent="1" source="295" target="283" edge="1">
                    <mxGeometry relative="1" as="geometry">
                        <mxPoint x="259" y="1205" as="sourcePoint"/>
                        <mxPoint x="329" y="1204" as="targetPoint"/>
                    </mxGeometry>
                </mxCell>
                <mxCell id="285" value="&lt;font face=&quot;Verdana&quot;&gt;*,*&lt;/font&gt;" style="resizable=0;html=1;align=left;verticalAlign=bottom;sketch=0;hachureGap=4;jiggle=2;curveFitting=1;fontFamily=Architects Daughter;fontSource=https%3A%2F%2Ffonts.googleapis.com%2Fcss%3Ffamily%3DArchitects%2BDaughter;fontSize=20;fontColor=#000000;fillColor=#1D1D1D;" parent="284" connectable="0" vertex="1">
                    <mxGeometry x="-1" relative="1" as="geometry">
                        <mxPoint x="7" y="1" as="offset"/>
                    </mxGeometry>
                </mxCell>
                <mxCell id="286" value="" style="resizable=0;html=1;align=right;verticalAlign=bottom;sketch=0;hachureGap=4;jiggle=2;curveFitting=1;fontFamily=Architects Daughter;fontSource=https%3A%2F%2Ffonts.googleapis.com%2Fcss%3Ffamily%3DArchitects%2BDaughter;fontSize=20;fontColor=#000000;fillColor=#1D1D1D;" parent="284" connectable="0" vertex="1">
                    <mxGeometry x="1" relative="1" as="geometry"/>
                </mxCell>
                <mxCell id="287" value="" style="endArrow=none;html=1;rounded=0;sketch=0;hachureGap=4;jiggle=2;curveFitting=1;strokeColor=#030303;fontFamily=Architects Daughter;fontSource=https%3A%2F%2Ffonts.googleapis.com%2Fcss%3Ffamily%3DArchitects%2BDaughter;fontSize=16;fontColor=#000000;entryX=0;entryY=0.5;entryDx=0;entryDy=0;exitX=1;exitY=0.5;exitDx=0;exitDy=0;" parent="1" source="283" target="296" edge="1">
                    <mxGeometry relative="1" as="geometry">
                        <mxPoint x="479" y="1205" as="sourcePoint"/>
                        <mxPoint x="548" y="1205" as="targetPoint"/>
                    </mxGeometry>
                </mxCell>
                <mxCell id="288" value="" style="resizable=0;html=1;align=left;verticalAlign=bottom;sketch=0;hachureGap=4;jiggle=2;curveFitting=1;fontFamily=Architects Daughter;fontSource=https%3A%2F%2Ffonts.googleapis.com%2Fcss%3Ffamily%3DArchitects%2BDaughter;fontSize=20;fontColor=#000000;fillColor=#1D1D1D;" parent="287" connectable="0" vertex="1">
                    <mxGeometry x="-1" relative="1" as="geometry"/>
                </mxCell>
                <mxCell id="289" value="" style="resizable=0;html=1;align=right;verticalAlign=bottom;sketch=0;hachureGap=4;jiggle=2;curveFitting=1;fontFamily=Architects Daughter;fontSource=https%3A%2F%2Ffonts.googleapis.com%2Fcss%3Ffamily%3DArchitects%2BDaughter;fontSize=20;fontColor=#000000;fillColor=#1D1D1D;" parent="287" connectable="0" vertex="1">
                    <mxGeometry x="1" relative="1" as="geometry">
                        <mxPoint x="-41" y="-1" as="offset"/>
                    </mxGeometry>
                </mxCell>
                <mxCell id="290" value="1,*" style="text;html=1;align=center;verticalAlign=middle;resizable=0;points=[];autosize=1;strokeColor=none;fillColor=none;fontSize=20;fontFamily=Verdana;fontColor=#000000;sketch=1;hachureGap=4;jiggle=2;curveFitting=1;fontSource=https%3A%2F%2Ffonts.googleapis.com%2Fcss%3Ffamily%3DArchitects%2BDaughter;" parent="1" vertex="1">
                    <mxGeometry x="511" y="1174" width="43" height="36" as="geometry"/>
                </mxCell>
                <mxCell id="292" value="" style="edgeStyle=none;sketch=0;hachureGap=4;jiggle=2;curveFitting=1;html=1;strokeColor=#030303;fontFamily=Verdana;fontSize=16;fontColor=#000000;endSize=10;" parent="1" edge="1">
                    <mxGeometry relative="1" as="geometry">
                        <mxPoint x="413.605263157895" y="1296" as="targetPoint"/>
                        <mxPoint x="413.605263157895" y="1296" as="sourcePoint"/>
                    </mxGeometry>
                </mxCell>
                <mxCell id="295" value="&lt;font face=&quot;Verdana&quot;&gt;Pelotero&lt;/font&gt;" style="whiteSpace=wrap;html=1;align=center;sketch=0;hachureGap=4;jiggle=2;curveFitting=1;fontFamily=Architects Daughter;fontSource=https%3A%2F%2Ffonts.googleapis.com%2Fcss%3Ffamily%3DArchitects%2BDaughter;fontSize=20;fillColor=#f5f5f5;fontColor=#333333;strokeColor=#666666;" parent="1" vertex="1">
                    <mxGeometry x="135.5" y="1185" width="125" height="40" as="geometry"/>
                </mxCell>
                <mxCell id="296" value="&lt;font face=&quot;Verdana&quot;&gt;Posición&lt;/font&gt;" style="whiteSpace=wrap;html=1;align=center;sketch=0;hachureGap=4;jiggle=2;curveFitting=1;fontFamily=Architects Daughter;fontSource=https%3A%2F%2Ffonts.googleapis.com%2Fcss%3Ffamily%3DArchitects%2BDaughter;fontSize=20;fillColor=#f5f5f5;fontColor=#333333;strokeColor=#666666;" parent="1" vertex="1">
                    <mxGeometry x="555" y="1185" width="125" height="40" as="geometry"/>
                </mxCell>
                <mxCell id="298" value="" style="swimlane;startSize=0;shadow=0;sketch=0;hachureGap=4;jiggle=2;curveFitting=1;strokeColor=#1A1A1A;fontFamily=Verdana;fontSize=20;fillColor=none;gradientColor=none;opacity=30;swimlaneFillColor=none;" parent="1" vertex="1">
                    <mxGeometry x="120" y="1134" width="581" height="169" as="geometry"/>
                </mxCell>
                <mxCell id="299" value="&lt;font face=&quot;Verdana&quot;&gt;Jugador en posición&lt;/font&gt;" style="text;strokeColor=none;fillColor=none;html=1;fontSize=24;fontStyle=1;verticalAlign=middle;align=center;shadow=0;sketch=0;hachureGap=4;jiggle=2;curveFitting=1;fontFamily=Architects Daughter;fontSource=https%3A%2F%2Ffonts.googleapis.com%2Fcss%3Ffamily%3DArchitects%2BDaughter;opacity=30;fontColor=#333333;" parent="298" vertex="1">
                    <mxGeometry x="176" y="120" width="223" height="40" as="geometry"/>
                </mxCell>
                <mxCell id="300" value="cambia" style="shape=rhombus;perimeter=rhombusPerimeter;whiteSpace=wrap;html=1;align=center;sketch=0;hachureGap=4;jiggle=2;curveFitting=1;fontFamily=Architects Daughter;fontSource=https%3A%2F%2Ffonts.googleapis.com%2Fcss%3Ffamily%3DArchitects%2BDaughter;fontSize=20;fillColor=#f5f5f5;fontColor=#333333;strokeColor=#666666;" parent="1" vertex="1">
                    <mxGeometry x="1112.73" y="1191" width="148" height="58" as="geometry"/>
                </mxCell>
                <mxCell id="301" value="" style="endArrow=none;html=1;rounded=0;sketch=0;hachureGap=4;jiggle=2;curveFitting=1;strokeColor=#030303;fontFamily=Architects Daughter;fontSource=https%3A%2F%2Ffonts.googleapis.com%2Fcss%3Ffamily%3DArchitects%2BDaughter;fontSize=16;fontColor=#000000;entryX=0.5;entryY=0;entryDx=0;entryDy=0;exitX=1;exitY=0;exitDx=0;exitDy=0;" parent="1" source="310" target="300" edge="1">
                    <mxGeometry relative="1" as="geometry">
                        <mxPoint x="1080" y="1220" as="sourcePoint"/>
                        <mxPoint x="1112.23" y="1219" as="targetPoint"/>
                    </mxGeometry>
                </mxCell>
                <mxCell id="302" value="&lt;font face=&quot;Verdana&quot;&gt;1,*&lt;/font&gt;" style="resizable=0;html=1;align=left;verticalAlign=bottom;sketch=0;hachureGap=4;jiggle=2;curveFitting=1;fontFamily=Architects Daughter;fontSource=https%3A%2F%2Ffonts.googleapis.com%2Fcss%3Ffamily%3DArchitects%2BDaughter;fontSize=20;fontColor=#000000;fillColor=#1D1D1D;" parent="301" connectable="0" vertex="1">
                    <mxGeometry x="-1" relative="1" as="geometry">
                        <mxPoint x="-4" y="1" as="offset"/>
                    </mxGeometry>
                </mxCell>
                <mxCell id="303" value="" style="resizable=0;html=1;align=right;verticalAlign=bottom;sketch=0;hachureGap=4;jiggle=2;curveFitting=1;fontFamily=Architects Daughter;fontSource=https%3A%2F%2Ffonts.googleapis.com%2Fcss%3Ffamily%3DArchitects%2BDaughter;fontSize=20;fontColor=#000000;fillColor=#1D1D1D;" parent="301" connectable="0" vertex="1">
                    <mxGeometry x="1" relative="1" as="geometry"/>
                </mxCell>
                <mxCell id="304" value="" style="endArrow=none;html=1;rounded=0;sketch=0;hachureGap=4;jiggle=2;curveFitting=1;strokeColor=#030303;fontFamily=Architects Daughter;fontSource=https%3A%2F%2Ffonts.googleapis.com%2Fcss%3Ffamily%3DArchitects%2BDaughter;fontSize=16;fontColor=#000000;entryX=0;entryY=0.5;entryDx=0;entryDy=0;" parent="1" target="311" edge="1">
                    <mxGeometry relative="1" as="geometry">
                        <mxPoint x="1261" y="1220" as="sourcePoint"/>
                        <mxPoint x="1331.23" y="1220" as="targetPoint"/>
                    </mxGeometry>
                </mxCell>
                <mxCell id="305" value="" style="resizable=0;html=1;align=left;verticalAlign=bottom;sketch=0;hachureGap=4;jiggle=2;curveFitting=1;fontFamily=Architects Daughter;fontSource=https%3A%2F%2Ffonts.googleapis.com%2Fcss%3Ffamily%3DArchitects%2BDaughter;fontSize=20;fontColor=#000000;fillColor=#1D1D1D;" parent="304" connectable="0" vertex="1">
                    <mxGeometry x="-1" relative="1" as="geometry"/>
                </mxCell>
                <mxCell id="306" value="" style="resizable=0;html=1;align=right;verticalAlign=bottom;sketch=0;hachureGap=4;jiggle=2;curveFitting=1;fontFamily=Architects Daughter;fontSource=https%3A%2F%2Ffonts.googleapis.com%2Fcss%3Ffamily%3DArchitects%2BDaughter;fontSize=20;fontColor=#000000;fillColor=#1D1D1D;" parent="304" connectable="0" vertex="1">
                    <mxGeometry x="1" relative="1" as="geometry">
                        <mxPoint x="-41" y="-1" as="offset"/>
                    </mxGeometry>
                </mxCell>
                <mxCell id="307" value="1,1" style="text;html=1;align=center;verticalAlign=middle;resizable=0;points=[];autosize=1;strokeColor=none;fillColor=none;fontSize=20;fontFamily=Verdana;fontColor=#000000;sketch=1;hachureGap=4;jiggle=2;curveFitting=1;fontSource=https%3A%2F%2Ffonts.googleapis.com%2Fcss%3Ffamily%3DArchitects%2BDaughter;" parent="1" vertex="1">
                    <mxGeometry x="1294.23" y="1189" width="43" height="36" as="geometry"/>
                </mxCell>
                <mxCell id="309" value="" style="edgeStyle=none;sketch=0;hachureGap=4;jiggle=2;curveFitting=1;html=1;strokeColor=#030303;fontFamily=Verdana;fontSize=16;fontColor=#000000;endSize=10;" parent="1" edge="1">
                    <mxGeometry relative="1" as="geometry">
                        <mxPoint x="1196.835263157895" y="1311.0000000000002" as="targetPoint"/>
                        <mxPoint x="1196.835263157895" y="1311.0000000000002" as="sourcePoint"/>
                    </mxGeometry>
                </mxCell>
                <mxCell id="310" value="&lt;font face=&quot;Verdana&quot;&gt;Pelotero&lt;/font&gt;" style="whiteSpace=wrap;html=1;align=center;sketch=0;hachureGap=4;jiggle=2;curveFitting=1;fontFamily=Architects Daughter;fontSource=https%3A%2F%2Ffonts.googleapis.com%2Fcss%3Ffamily%3DArchitects%2BDaughter;fontSize=20;fillColor=#f5f5f5;fontColor=#333333;strokeColor=#666666;" parent="1" vertex="1">
                    <mxGeometry x="918.73" y="1200" width="125" height="40" as="geometry"/>
                </mxCell>
                <mxCell id="311" value="&lt;font face=&quot;Verdana&quot;&gt;Posición&lt;/font&gt;" style="whiteSpace=wrap;html=1;align=center;sketch=0;hachureGap=4;jiggle=2;curveFitting=1;fontFamily=Architects Daughter;fontSource=https%3A%2F%2Ffonts.googleapis.com%2Fcss%3Ffamily%3DArchitects%2BDaughter;fontSize=20;fillColor=#f5f5f5;fontColor=#333333;strokeColor=#666666;" parent="1" vertex="1">
                    <mxGeometry x="1338.23" y="1200" width="125" height="40" as="geometry"/>
                </mxCell>
                <mxCell id="314" value="" style="endArrow=none;html=1;rounded=0;sketch=0;hachureGap=4;jiggle=2;curveFitting=1;strokeColor=#030303;fontFamily=Architects Daughter;fontSource=https%3A%2F%2Ffonts.googleapis.com%2Fcss%3Ffamily%3DArchitects%2BDaughter;fontSize=16;fontColor=#000000;entryX=0.5;entryY=1;entryDx=0;entryDy=0;exitX=1;exitY=1;exitDx=0;exitDy=0;" parent="1" source="310" target="300" edge="1">
                    <mxGeometry relative="1" as="geometry">
                        <mxPoint x="1053.73" y="1210" as="sourcePoint"/>
                        <mxPoint x="1196.73" y="1201" as="targetPoint"/>
                    </mxGeometry>
                </mxCell>
                <mxCell id="315" value="&lt;font face=&quot;Verdana&quot;&gt;1,*&lt;/font&gt;" style="resizable=0;html=1;align=left;verticalAlign=bottom;sketch=0;hachureGap=4;jiggle=2;curveFitting=1;fontFamily=Architects Daughter;fontSource=https%3A%2F%2Ffonts.googleapis.com%2Fcss%3Ffamily%3DArchitects%2BDaughter;fontSize=20;fontColor=#000000;fillColor=#1D1D1D;" parent="314" connectable="0" vertex="1">
                    <mxGeometry x="-1" relative="1" as="geometry">
                        <mxPoint x="-1" y="33" as="offset"/>
                    </mxGeometry>
                </mxCell>
                <mxCell id="316" value="" style="resizable=0;html=1;align=right;verticalAlign=bottom;sketch=0;hachureGap=4;jiggle=2;curveFitting=1;fontFamily=Architects Daughter;fontSource=https%3A%2F%2Ffonts.googleapis.com%2Fcss%3Ffamily%3DArchitects%2BDaughter;fontSize=20;fontColor=#000000;fillColor=#1D1D1D;" parent="314" connectable="0" vertex="1">
                    <mxGeometry x="1" relative="1" as="geometry"/>
                </mxCell>
                <mxCell id="317" value="&lt;font style=&quot;font-weight: normal; font-size: 17px;&quot; face=&quot;Verdana&quot;&gt;se&lt;/font&gt;" style="text;strokeColor=none;fillColor=none;html=1;fontSize=24;fontStyle=1;verticalAlign=middle;align=center;shadow=0;sketch=0;hachureGap=4;jiggle=2;curveFitting=1;fontFamily=Architects Daughter;fontSource=https%3A%2F%2Ffonts.googleapis.com%2Fcss%3Ffamily%3DArchitects%2BDaughter;opacity=30;fontColor=#333333;" parent="1" vertex="1">
                    <mxGeometry x="1085" y="1161" width="50.27" height="39" as="geometry"/>
                </mxCell>
                <mxCell id="319" value="&lt;font style=&quot;font-weight: normal; font-size: 17px;&quot; face=&quot;Verdana&quot;&gt;por otro&lt;/font&gt;" style="text;strokeColor=none;fillColor=none;html=1;fontSize=24;fontStyle=1;verticalAlign=middle;align=center;shadow=0;sketch=0;hachureGap=4;jiggle=2;curveFitting=1;fontFamily=Architects Daughter;fontSource=https%3A%2F%2Ffonts.googleapis.com%2Fcss%3Ffamily%3DArchitects%2BDaughter;opacity=30;fontColor=#333333;" parent="1" vertex="1">
                    <mxGeometry x="1084.5" y="1240" width="50.27" height="39" as="geometry"/>
                </mxCell>
                <mxCell id="322" value="" style="swimlane;startSize=0;shadow=0;sketch=0;hachureGap=4;jiggle=2;curveFitting=1;strokeColor=#1A1A1A;fontFamily=Verdana;fontSize=17;fillColor=none;gradientColor=none;opacity=30;" parent="1" vertex="1">
                    <mxGeometry x="886" y="1159" width="600" height="152" as="geometry"/>
                </mxCell>
                <mxCell id="313" value="&lt;font face=&quot;Verdana&quot;&gt;Cambios&lt;/font&gt;" style="text;strokeColor=none;fillColor=none;html=1;fontSize=24;fontStyle=1;verticalAlign=middle;align=center;shadow=0;sketch=0;hachureGap=4;jiggle=2;curveFitting=1;fontFamily=Architects Daughter;fontSource=https%3A%2F%2Ffonts.googleapis.com%2Fcss%3Ffamily%3DArchitects%2BDaughter;opacity=30;fontColor=#333333;" parent="322" vertex="1">
                    <mxGeometry x="226.96" y="104" width="152.77" height="40" as="geometry"/>
                </mxCell>
                <mxCell id="324" value="" style="endArrow=none;html=1;rounded=0;hachureGap=4;fontFamily=Architects Daughter;fontSource=https%3A%2F%2Ffonts.googleapis.com%2Fcss%3Ffamily%3DArchitects%2BDaughter;fontSize=16;entryX=0.5;entryY=1;entryDx=0;entryDy=0;exitX=0.5;exitY=0;exitDx=0;exitDy=0;strokeColor=#030303;" parent="1" source="345" target="326" edge="1">
                    <mxGeometry relative="1" as="geometry">
                        <mxPoint x="410.25" y="1466" as="sourcePoint"/>
                        <mxPoint x="469.25" y="1513" as="targetPoint"/>
                    </mxGeometry>
                </mxCell>
                <mxCell id="326" value="conforma" style="shape=rhombus;perimeter=rhombusPerimeter;whiteSpace=wrap;html=1;align=center;sketch=0;hachureGap=4;jiggle=2;curveFitting=1;fontFamily=Architects Daughter;fontSource=https%3A%2F%2Ffonts.googleapis.com%2Fcss%3Ffamily%3DArchitects%2BDaughter;fontSize=20;fillColor=#f5f5f5;fontColor=#333333;strokeColor=#666666;" parent="1" vertex="1">
                    <mxGeometry x="348.75" y="1374" width="123" height="59" as="geometry"/>
                </mxCell>
                <mxCell id="328" value="0,*" style="text;html=1;align=center;verticalAlign=middle;resizable=0;points=[];autosize=1;strokeColor=none;fillColor=none;fontSize=20;fontFamily=Verdana;fontColor=#000000;sketch=1;hachureGap=4;jiggle=2;curveFitting=1;fontSource=https%3A%2F%2Ffonts.googleapis.com%2Fcss%3Ffamily%3DArchitects%2BDaughter;" parent="1" vertex="1">
                    <mxGeometry x="411.75" y="1433" width="43" height="36" as="geometry"/>
                </mxCell>
                <mxCell id="330" value="" style="endArrow=none;html=1;rounded=0;hachureGap=4;fontFamily=Architects Daughter;fontSource=https%3A%2F%2Ffonts.googleapis.com%2Fcss%3Ffamily%3DArchitects%2BDaughter;fontSize=16;exitX=0.5;exitY=0;exitDx=0;exitDy=0;strokeColor=#030303;entryX=0.5;entryY=1;entryDx=0;entryDy=0;" parent="1" source="326" target="298" edge="1">
                    <mxGeometry relative="1" as="geometry">
                        <mxPoint x="414" y="1498.9" as="sourcePoint"/>
                        <mxPoint x="411" y="1425" as="targetPoint"/>
                    </mxGeometry>
                </mxCell>
                <mxCell id="331" value="*,*" style="text;html=1;align=center;verticalAlign=middle;resizable=0;points=[];autosize=1;strokeColor=none;fillColor=none;fontSize=20;fontFamily=Verdana;fontColor=#000000;sketch=1;hachureGap=4;jiggle=2;curveFitting=1;fontSource=https%3A%2F%2Ffonts.googleapis.com%2Fcss%3Ffamily%3DArchitects%2BDaughter;" parent="1" vertex="1">
                    <mxGeometry x="411.75" y="1301" width="43" height="36" as="geometry"/>
                </mxCell>
                <mxCell id="339" value="&lt;font face=&quot;Verdana&quot;&gt;Cambios de un juego&lt;/font&gt;" style="whiteSpace=wrap;html=1;align=center;sketch=0;hachureGap=4;jiggle=2;curveFitting=1;fontFamily=Architects Daughter;fontSource=https%3A%2F%2Ffonts.googleapis.com%2Fcss%3Ffamily%3DArchitects%2BDaughter;fontSize=20;fillColor=#f5f5f5;fontColor=#333333;strokeColor=#666666;" parent="1" vertex="1">
                    <mxGeometry x="1092.75" y="1473.69" width="188" height="40" as="geometry"/>
                </mxCell>
                <mxCell id="340" value="" style="endArrow=none;html=1;rounded=0;hachureGap=4;fontFamily=Architects Daughter;fontSource=https%3A%2F%2Ffonts.googleapis.com%2Fcss%3Ffamily%3DArchitects%2BDaughter;fontSize=16;entryX=0.5;entryY=1;entryDx=0;entryDy=0;exitX=0.5;exitY=0;exitDx=0;exitDy=0;strokeColor=#030303;" parent="1" source="339" target="341" edge="1">
                    <mxGeometry relative="1" as="geometry">
                        <mxPoint x="1185.25" y="1539" as="sourcePoint"/>
                        <mxPoint x="1245.25" y="1509" as="targetPoint"/>
                    </mxGeometry>
                </mxCell>
                <mxCell id="341" value="realiza" style="shape=rhombus;perimeter=rhombusPerimeter;whiteSpace=wrap;html=1;align=center;sketch=0;hachureGap=4;jiggle=2;curveFitting=1;fontFamily=Architects Daughter;fontSource=https%3A%2F%2Ffonts.googleapis.com%2Fcss%3Ffamily%3DArchitects%2BDaughter;fontSize=20;fillColor=#f5f5f5;fontColor=#333333;strokeColor=#666666;" parent="1" vertex="1">
                    <mxGeometry x="1118.75" y="1370" width="135" height="55" as="geometry"/>
                </mxCell>
                <mxCell id="342" value="1,*" style="text;html=1;align=center;verticalAlign=middle;resizable=0;points=[];autosize=1;strokeColor=none;fillColor=none;fontSize=20;fontFamily=Verdana;fontColor=#000000;sketch=1;hachureGap=4;jiggle=2;curveFitting=1;fontSource=https%3A%2F%2Ffonts.googleapis.com%2Fcss%3Ffamily%3DArchitects%2BDaughter;" parent="1" vertex="1">
                    <mxGeometry x="1187.75" y="1429" width="43" height="36" as="geometry"/>
                </mxCell>
                <mxCell id="343" value="" style="endArrow=none;html=1;rounded=0;hachureGap=4;fontFamily=Architects Daughter;fontSource=https%3A%2F%2Ffonts.googleapis.com%2Fcss%3Ffamily%3DArchitects%2BDaughter;fontSize=16;exitX=0.5;exitY=0;exitDx=0;exitDy=0;strokeColor=#030303;entryX=0.5;entryY=1;entryDx=0;entryDy=0;" parent="1" source="341" target="322" edge="1">
                    <mxGeometry relative="1" as="geometry">
                        <mxPoint x="1195" y="1494.9" as="sourcePoint"/>
                        <mxPoint x="1191.5" y="1368" as="targetPoint"/>
                    </mxGeometry>
                </mxCell>
                <mxCell id="344" value="0,*" style="text;html=1;align=center;verticalAlign=middle;resizable=0;points=[];autosize=1;strokeColor=none;fillColor=none;fontSize=20;fontFamily=Verdana;fontColor=#000000;sketch=1;hachureGap=4;jiggle=2;curveFitting=1;fontSource=https%3A%2F%2Ffonts.googleapis.com%2Fcss%3Ffamily%3DArchitects%2BDaughter;" parent="1" vertex="1">
                    <mxGeometry x="1190" y="1309" width="43" height="36" as="geometry"/>
                </mxCell>
                <mxCell id="345" value="Alineación inicial" style="shape=ext;margin=3;double=1;whiteSpace=wrap;html=1;align=center;sketch=0;hachureGap=4;jiggle=2;curveFitting=1;strokeWidth=2;fontFamily=Verdana;fontSize=20;fontColor=#333333;fillColor=#f5f5f5;strokeColor=#666666;" parent="1" vertex="1">
                    <mxGeometry x="325.75" y="1473" width="170" height="40" as="geometry"/>
                </mxCell>
                <mxCell id="349" value="Asociado" style="shape=rhombus;double=1;perimeter=rhombusPerimeter;whiteSpace=wrap;html=1;align=center;sketch=0;hachureGap=4;jiggle=2;curveFitting=1;strokeWidth=2;fontFamily=Verdana;fontSize=20;fontColor=#333333;fillColor=#f5f5f5;strokeColor=#666666;" parent="1" vertex="1">
                    <mxGeometry x="140.75" y="1463" width="148" height="60" as="geometry"/>
                </mxCell>
                <mxCell id="350" value="" style="endArrow=none;html=1;rounded=0;sketch=0;hachureGap=4;jiggle=2;curveFitting=1;strokeColor=#030303;fontFamily=Architects Daughter;fontSource=https%3A%2F%2Ffonts.googleapis.com%2Fcss%3Ffamily%3DArchitects%2BDaughter;fontSize=16;fontColor=#000000;entryX=0.5;entryY=0;entryDx=0;entryDy=0;exitX=0.5;exitY=1;exitDx=0;exitDy=0;" parent="1" source="359" target="349" edge="1">
                    <mxGeometry relative="1" as="geometry">
                        <mxPoint x="165.75" y="1446" as="sourcePoint"/>
                        <mxPoint x="194.75" y="1449" as="targetPoint"/>
                    </mxGeometry>
                </mxCell>
                <mxCell id="351" value="&lt;font face=&quot;Verdana&quot;&gt;1,1&lt;/font&gt;" style="resizable=0;html=1;align=left;verticalAlign=bottom;sketch=0;hachureGap=4;jiggle=2;curveFitting=1;fontFamily=Architects Daughter;fontSource=https%3A%2F%2Ffonts.googleapis.com%2Fcss%3Ffamily%3DArchitects%2BDaughter;fontSize=20;fontColor=#000000;fillColor=#1D1D1D;" parent="350" connectable="0" vertex="1">
                    <mxGeometry x="-1" relative="1" as="geometry">
                        <mxPoint x="7" y="27" as="offset"/>
                    </mxGeometry>
                </mxCell>
                <mxCell id="352" value="" style="resizable=0;html=1;align=right;verticalAlign=bottom;sketch=0;hachureGap=4;jiggle=2;curveFitting=1;fontFamily=Architects Daughter;fontSource=https%3A%2F%2Ffonts.googleapis.com%2Fcss%3Ffamily%3DArchitects%2BDaughter;fontSize=20;fontColor=#000000;fillColor=#1D1D1D;" parent="350" connectable="0" vertex="1">
                    <mxGeometry x="1" relative="1" as="geometry"/>
                </mxCell>
                <mxCell id="353" value="" style="endArrow=none;html=1;rounded=0;sketch=0;hachureGap=4;jiggle=2;curveFitting=1;strokeColor=#030303;fontFamily=Architects Daughter;fontSource=https%3A%2F%2Ffonts.googleapis.com%2Fcss%3Ffamily%3DArchitects%2BDaughter;fontSize=16;fontColor=#000000;exitX=1;exitY=0.5;exitDx=0;exitDy=0;entryX=0;entryY=0.5;entryDx=0;entryDy=0;" parent="1" source="349" target="345" edge="1">
                    <mxGeometry relative="1" as="geometry">
                        <mxPoint x="305.75" y="1494.58" as="sourcePoint"/>
                        <mxPoint x="314.75" y="1487" as="targetPoint"/>
                    </mxGeometry>
                </mxCell>
                <mxCell id="354" value="" style="resizable=0;html=1;align=left;verticalAlign=bottom;sketch=0;hachureGap=4;jiggle=2;curveFitting=1;fontFamily=Architects Daughter;fontSource=https%3A%2F%2Ffonts.googleapis.com%2Fcss%3Ffamily%3DArchitects%2BDaughter;fontSize=20;fontColor=#000000;fillColor=#1D1D1D;" parent="353" connectable="0" vertex="1">
                    <mxGeometry x="-1" relative="1" as="geometry"/>
                </mxCell>
                <mxCell id="355" value="" style="resizable=0;html=1;align=right;verticalAlign=bottom;sketch=0;hachureGap=4;jiggle=2;curveFitting=1;fontFamily=Architects Daughter;fontSource=https%3A%2F%2Ffonts.googleapis.com%2Fcss%3Ffamily%3DArchitects%2BDaughter;fontSize=20;fontColor=#000000;fillColor=#1D1D1D;" parent="353" connectable="0" vertex="1">
                    <mxGeometry x="1" relative="1" as="geometry">
                        <mxPoint x="-41" y="-1" as="offset"/>
                    </mxGeometry>
                </mxCell>
                <mxCell id="356" value="1,*" style="text;html=1;align=center;verticalAlign=middle;resizable=0;points=[];autosize=1;strokeColor=none;fillColor=none;fontSize=20;fontFamily=Verdana;fontColor=#000000;sketch=1;hachureGap=4;jiggle=2;curveFitting=1;fontSource=https%3A%2F%2Ffonts.googleapis.com%2Fcss%3Ffamily%3DArchitects%2BDaughter;" parent="1" vertex="1">
                    <mxGeometry x="280.75" y="1464" width="43" height="36" as="geometry"/>
                </mxCell>
                <mxCell id="359" value="&lt;font face=&quot;Verdana&quot;&gt;Equipo&lt;/font&gt;" style="whiteSpace=wrap;html=1;align=center;sketch=0;hachureGap=4;jiggle=2;curveFitting=1;fontFamily=Architects Daughter;fontSource=https%3A%2F%2Ffonts.googleapis.com%2Fcss%3Ffamily%3DArchitects%2BDaughter;fontSize=20;fillColor=#f5f5f5;fontColor=#333333;strokeColor=#666666;" parent="1" vertex="1">
                    <mxGeometry x="164.25" y="1381" width="100" height="40" as="geometry"/>
                </mxCell>
                <mxCell id="361" value="tiene" style="shape=rhombus;perimeter=rhombusPerimeter;whiteSpace=wrap;html=1;align=center;sketch=0;hachureGap=4;jiggle=2;curveFitting=1;fontFamily=Architects Daughter;fontSource=https%3A%2F%2Ffonts.googleapis.com%2Fcss%3Ffamily%3DArchitects%2BDaughter;fontSize=20;fillColor=#f5f5f5;fontColor=#333333;strokeColor=#666666;" parent="1" vertex="1">
                    <mxGeometry x="559.33" y="1467.5" width="99" height="51" as="geometry"/>
                </mxCell>
                <mxCell id="362" value="" style="resizable=0;html=1;align=left;verticalAlign=bottom;sketch=0;hachureGap=4;jiggle=2;curveFitting=1;fontFamily=Architects Daughter;fontSource=https%3A%2F%2Ffonts.googleapis.com%2Fcss%3Ffamily%3DArchitects%2BDaughter;fontSize=20;fontColor=#000000;fillColor=#1D1D1D;" parent="1" connectable="0" vertex="1">
                    <mxGeometry x="654.83" y="1493.25" as="geometry"/>
                </mxCell>
                <mxCell id="363" value="" style="endArrow=none;html=1;rounded=0;sketch=0;hachureGap=4;jiggle=2;curveFitting=1;strokeColor=#030303;fontFamily=Architects Daughter;fontSource=https%3A%2F%2Ffonts.googleapis.com%2Fcss%3Ffamily%3DArchitects%2BDaughter;fontSize=16;fontColor=#000000;entryX=0;entryY=0.5;entryDx=0;entryDy=0;exitX=1;exitY=0.5;exitDx=0;exitDy=0;" parent="1" source="361" target="370" edge="1">
                    <mxGeometry relative="1" as="geometry">
                        <mxPoint x="673.8300000000003" y="1493.2500000000002" as="sourcePoint"/>
                        <mxPoint x="719.33" y="1493.56" as="targetPoint"/>
                    </mxGeometry>
                </mxCell>
                <mxCell id="364" value="" style="resizable=0;html=1;align=left;verticalAlign=bottom;sketch=0;hachureGap=4;jiggle=2;curveFitting=1;fontFamily=Architects Daughter;fontSource=https%3A%2F%2Ffonts.googleapis.com%2Fcss%3Ffamily%3DArchitects%2BDaughter;fontSize=20;fontColor=#000000;fillColor=#1D1D1D;" parent="363" connectable="0" vertex="1">
                    <mxGeometry x="-1" relative="1" as="geometry"/>
                </mxCell>
                <mxCell id="365" value="" style="resizable=0;html=1;align=right;verticalAlign=bottom;sketch=0;hachureGap=4;jiggle=2;curveFitting=1;fontFamily=Architects Daughter;fontSource=https%3A%2F%2Ffonts.googleapis.com%2Fcss%3Ffamily%3DArchitects%2BDaughter;fontSize=20;fontColor=#000000;fillColor=#1D1D1D;" parent="363" connectable="0" vertex="1">
                    <mxGeometry x="1" relative="1" as="geometry">
                        <mxPoint x="-41" y="-1" as="offset"/>
                    </mxGeometry>
                </mxCell>
                <mxCell id="366" value="1,*" style="text;html=1;align=center;verticalAlign=middle;resizable=0;points=[];autosize=1;strokeColor=none;fillColor=none;fontSize=20;fontFamily=Verdana;fontColor=#000000;sketch=1;hachureGap=4;jiggle=2;curveFitting=1;fontSource=https%3A%2F%2Ffonts.googleapis.com%2Fcss%3Ffamily%3DArchitects%2BDaughter;" parent="1" vertex="1">
                    <mxGeometry x="683.33" y="1462" width="43" height="36" as="geometry"/>
                </mxCell>
                <mxCell id="367" value="" style="endArrow=none;html=1;rounded=0;sketch=0;hachureGap=4;jiggle=2;curveFitting=1;strokeColor=#030303;fontFamily=Architects Daughter;fontSource=https%3A%2F%2Ffonts.googleapis.com%2Fcss%3Ffamily%3DArchitects%2BDaughter;fontSize=16;fontColor=#000000;entryX=0;entryY=0.5;entryDx=0;entryDy=0;exitX=1;exitY=0.5;exitDx=0;exitDy=0;" parent="1" source="345" target="361" edge="1">
                    <mxGeometry relative="1" as="geometry">
                        <mxPoint x="509.75" y="1494.56" as="sourcePoint"/>
                        <mxPoint x="617.7500000000002" y="1490.9600000000003" as="targetPoint"/>
                    </mxGeometry>
                </mxCell>
                <mxCell id="368" value="" style="resizable=0;html=1;align=right;verticalAlign=bottom;sketch=0;hachureGap=4;jiggle=2;curveFitting=1;fontFamily=Architects Daughter;fontSource=https%3A%2F%2Ffonts.googleapis.com%2Fcss%3Ffamily%3DArchitects%2BDaughter;fontSize=20;fontColor=#000000;fillColor=#1D1D1D;" parent="367" connectable="0" vertex="1">
                    <mxGeometry x="1" relative="1" as="geometry"/>
                </mxCell>
                <mxCell id="369" value="1,1" style="text;html=1;align=center;verticalAlign=middle;resizable=0;points=[];autosize=1;strokeColor=none;fillColor=none;fontSize=20;fontFamily=Verdana;fontColor=#000000;sketch=1;hachureGap=4;jiggle=2;curveFitting=1;fontSource=https%3A%2F%2Ffonts.googleapis.com%2Fcss%3Ffamily%3DArchitects%2BDaughter;" parent="1" vertex="1">
                    <mxGeometry x="498.25" y="1463.44" width="43" height="36" as="geometry"/>
                </mxCell>
                <mxCell id="370" value="&lt;font face=&quot;Verdana&quot;&gt;Equipo en el campo&lt;/font&gt;" style="whiteSpace=wrap;html=1;align=center;sketch=0;hachureGap=4;jiggle=2;curveFitting=1;fontFamily=Architects Daughter;fontSource=https%3A%2F%2Ffonts.googleapis.com%2Fcss%3Ffamily%3DArchitects%2BDaughter;fontSize=20;fillColor=#f5f5f5;fontColor=#333333;strokeColor=#666666;" parent="1" vertex="1">
                    <mxGeometry x="727.75" y="1467.25" width="100" height="51.75" as="geometry"/>
                </mxCell>
                <mxCell id="371" value="realiza" style="shape=rhombus;perimeter=rhombusPerimeter;whiteSpace=wrap;html=1;align=center;sketch=0;hachureGap=4;jiggle=2;curveFitting=1;fontFamily=Architects Daughter;fontSource=https%3A%2F%2Ffonts.googleapis.com%2Fcss%3Ffamily%3DArchitects%2BDaughter;fontSize=20;fillColor=#f5f5f5;fontColor=#333333;strokeColor=#666666;" parent="1" vertex="1">
                    <mxGeometry x="909.75" y="1468.19" width="99" height="51" as="geometry"/>
                </mxCell>
                <mxCell id="372" value="" style="resizable=0;html=1;align=left;verticalAlign=bottom;sketch=0;hachureGap=4;jiggle=2;curveFitting=1;fontFamily=Architects Daughter;fontSource=https%3A%2F%2Ffonts.googleapis.com%2Fcss%3Ffamily%3DArchitects%2BDaughter;fontSize=20;fontColor=#000000;fillColor=#1D1D1D;" parent="1" connectable="0" vertex="1">
                    <mxGeometry x="982.25" y="1494.69" as="geometry"/>
                </mxCell>
                <mxCell id="373" value="" style="endArrow=none;html=1;rounded=0;sketch=0;hachureGap=4;jiggle=2;curveFitting=1;strokeColor=#030303;fontFamily=Architects Daughter;fontSource=https%3A%2F%2Ffonts.googleapis.com%2Fcss%3Ffamily%3DArchitects%2BDaughter;fontSize=16;fontColor=#000000;entryX=0;entryY=0.5;entryDx=0;entryDy=0;exitX=1;exitY=0.5;exitDx=0;exitDy=0;" parent="1" source="371" target="339" edge="1">
                    <mxGeometry relative="1" as="geometry">
                        <mxPoint x="1001.2500000000002" y="1494.6900000000003" as="sourcePoint"/>
                        <mxPoint x="1048.17" y="1494.565" as="targetPoint"/>
                    </mxGeometry>
                </mxCell>
                <mxCell id="374" value="" style="resizable=0;html=1;align=left;verticalAlign=bottom;sketch=0;hachureGap=4;jiggle=2;curveFitting=1;fontFamily=Architects Daughter;fontSource=https%3A%2F%2Ffonts.googleapis.com%2Fcss%3Ffamily%3DArchitects%2BDaughter;fontSize=20;fontColor=#000000;fillColor=#1D1D1D;" parent="373" connectable="0" vertex="1">
                    <mxGeometry x="-1" relative="1" as="geometry"/>
                </mxCell>
                <mxCell id="375" value="" style="resizable=0;html=1;align=right;verticalAlign=bottom;sketch=0;hachureGap=4;jiggle=2;curveFitting=1;fontFamily=Architects Daughter;fontSource=https%3A%2F%2Ffonts.googleapis.com%2Fcss%3Ffamily%3DArchitects%2BDaughter;fontSize=20;fontColor=#000000;fillColor=#1D1D1D;" parent="373" connectable="0" vertex="1">
                    <mxGeometry x="1" relative="1" as="geometry">
                        <mxPoint x="-41" y="-1" as="offset"/>
                    </mxGeometry>
                </mxCell>
                <mxCell id="376" value="1,*" style="text;html=1;align=center;verticalAlign=middle;resizable=0;points=[];autosize=1;strokeColor=none;fillColor=none;fontSize=20;fontFamily=Verdana;fontColor=#000000;sketch=1;hachureGap=4;jiggle=2;curveFitting=1;fontSource=https%3A%2F%2Ffonts.googleapis.com%2Fcss%3Ffamily%3DArchitects%2BDaughter;" parent="1" vertex="1">
                    <mxGeometry x="829.75" y="1458.69" width="43" height="36" as="geometry"/>
                </mxCell>
                <mxCell id="377" value="" style="endArrow=none;html=1;rounded=0;sketch=0;hachureGap=4;jiggle=2;curveFitting=1;strokeColor=#030303;fontFamily=Architects Daughter;fontSource=https%3A%2F%2Ffonts.googleapis.com%2Fcss%3Ffamily%3DArchitects%2BDaughter;fontSize=16;fontColor=#000000;entryX=0;entryY=0.5;entryDx=0;entryDy=0;exitX=1;exitY=0.5;exitDx=0;exitDy=0;" parent="1" source="370" target="371" edge="1">
                    <mxGeometry relative="1" as="geometry">
                        <mxPoint x="826.1700000000001" y="1494.44" as="sourcePoint"/>
                        <mxPoint x="945.1700000000003" y="1492.4000000000003" as="targetPoint"/>
                    </mxGeometry>
                </mxCell>
                <mxCell id="378" value="" style="resizable=0;html=1;align=right;verticalAlign=bottom;sketch=0;hachureGap=4;jiggle=2;curveFitting=1;fontFamily=Architects Daughter;fontSource=https%3A%2F%2Ffonts.googleapis.com%2Fcss%3Ffamily%3DArchitects%2BDaughter;fontSize=20;fontColor=#000000;fillColor=#1D1D1D;" parent="377" connectable="0" vertex="1">
                    <mxGeometry x="1" relative="1" as="geometry"/>
                </mxCell>
                <mxCell id="379" value="1,1" style="text;html=1;align=center;verticalAlign=middle;resizable=0;points=[];autosize=1;strokeColor=none;fillColor=none;fontSize=20;fontFamily=Verdana;fontColor=#000000;sketch=1;hachureGap=4;jiggle=2;curveFitting=1;fontSource=https%3A%2F%2Ffonts.googleapis.com%2Fcss%3Ffamily%3DArchitects%2BDaughter;" parent="1" vertex="1">
                    <mxGeometry x="1054.75" y="1458.69" width="43" height="36" as="geometry"/>
                </mxCell>
                <mxCell id="382" value="enfrenta" style="shape=rhombus;perimeter=rhombusPerimeter;whiteSpace=wrap;html=1;align=center;sketch=0;hachureGap=4;jiggle=2;curveFitting=1;fontFamily=Architects Daughter;fontSource=https%3A%2F%2Ffonts.googleapis.com%2Fcss%3Ffamily%3DArchitects%2BDaughter;fontSize=20;fillColor=#f5f5f5;fontColor=#333333;strokeColor=#666666;" parent="1" vertex="1">
                    <mxGeometry x="716.25" y="1582" width="123" height="59" as="geometry"/>
                </mxCell>
                <mxCell id="384" value="" style="endArrow=none;html=1;rounded=0;sketch=0;hachureGap=4;jiggle=2;curveFitting=1;strokeColor=#030303;fontFamily=Architects Daughter;fontSource=https%3A%2F%2Ffonts.googleapis.com%2Fcss%3Ffamily%3DArchitects%2BDaughter;fontSize=16;fontColor=#000000;entryX=0;entryY=1;entryDx=0;entryDy=0;" parent="1" target="370" edge="1">
                    <mxGeometry relative="1" as="geometry">
                        <mxPoint x="715.75" y="1611" as="sourcePoint"/>
                        <mxPoint x="737.75" y="1503.1249999999998" as="targetPoint"/>
                    </mxGeometry>
                </mxCell>
                <mxCell id="385" value="" style="resizable=0;html=1;align=left;verticalAlign=bottom;sketch=0;hachureGap=4;jiggle=2;curveFitting=1;fontFamily=Architects Daughter;fontSource=https%3A%2F%2Ffonts.googleapis.com%2Fcss%3Ffamily%3DArchitects%2BDaughter;fontSize=20;fontColor=#000000;fillColor=#1D1D1D;" parent="384" connectable="0" vertex="1">
                    <mxGeometry x="-1" relative="1" as="geometry"/>
                </mxCell>
                <mxCell id="386" value="" style="resizable=0;html=1;align=right;verticalAlign=bottom;sketch=0;hachureGap=4;jiggle=2;curveFitting=1;fontFamily=Architects Daughter;fontSource=https%3A%2F%2Ffonts.googleapis.com%2Fcss%3Ffamily%3DArchitects%2BDaughter;fontSize=20;fontColor=#000000;fillColor=#1D1D1D;" parent="384" connectable="0" vertex="1">
                    <mxGeometry x="1" relative="1" as="geometry">
                        <mxPoint x="-41" y="-1" as="offset"/>
                    </mxGeometry>
                </mxCell>
                <mxCell id="387" value="" style="endArrow=none;html=1;rounded=0;sketch=0;hachureGap=4;jiggle=2;curveFitting=1;strokeColor=#030303;fontFamily=Architects Daughter;fontSource=https%3A%2F%2Ffonts.googleapis.com%2Fcss%3Ffamily%3DArchitects%2BDaughter;fontSize=16;fontColor=#000000;entryX=1;entryY=1;entryDx=0;entryDy=0;exitX=1;exitY=0.5;exitDx=0;exitDy=0;" parent="1" source="382" target="370" edge="1">
                    <mxGeometry relative="1" as="geometry">
                        <mxPoint x="725.75" y="1621" as="sourcePoint"/>
                        <mxPoint x="737.75" y="1528.9999999999998" as="targetPoint"/>
                    </mxGeometry>
                </mxCell>
                <mxCell id="388" value="" style="resizable=0;html=1;align=left;verticalAlign=bottom;sketch=0;hachureGap=4;jiggle=2;curveFitting=1;fontFamily=Architects Daughter;fontSource=https%3A%2F%2Ffonts.googleapis.com%2Fcss%3Ffamily%3DArchitects%2BDaughter;fontSize=20;fontColor=#000000;fillColor=#1D1D1D;" parent="387" connectable="0" vertex="1">
                    <mxGeometry x="-1" relative="1" as="geometry"/>
                </mxCell>
                <mxCell id="389" value="" style="resizable=0;html=1;align=right;verticalAlign=bottom;sketch=0;hachureGap=4;jiggle=2;curveFitting=1;fontFamily=Architects Daughter;fontSource=https%3A%2F%2Ffonts.googleapis.com%2Fcss%3Ffamily%3DArchitects%2BDaughter;fontSize=20;fontColor=#000000;fillColor=#1D1D1D;" parent="387" connectable="0" vertex="1">
                    <mxGeometry x="1" relative="1" as="geometry">
                        <mxPoint x="-41" y="-1" as="offset"/>
                    </mxGeometry>
                </mxCell>
                <mxCell id="390" value="&lt;font style=&quot;font-weight: normal; font-size: 17px;&quot; face=&quot;Verdana&quot;&gt;se&lt;/font&gt;" style="text;strokeColor=none;fillColor=none;html=1;fontSize=24;fontStyle=1;verticalAlign=middle;align=center;shadow=0;sketch=0;hachureGap=4;jiggle=2;curveFitting=1;fontFamily=Architects Daughter;fontSource=https%3A%2F%2Ffonts.googleapis.com%2Fcss%3Ffamily%3DArchitects%2BDaughter;opacity=30;fontColor=#333333;" parent="1" vertex="1">
                    <mxGeometry x="685.75" y="1535" width="50.27" height="39" as="geometry"/>
                </mxCell>
                <mxCell id="391" value="&lt;font style=&quot;font-weight: normal; font-size: 17px;&quot; face=&quot;Verdana&quot;&gt;a otro&lt;/font&gt;" style="text;strokeColor=none;fillColor=none;html=1;fontSize=24;fontStyle=1;verticalAlign=middle;align=center;shadow=0;sketch=0;hachureGap=4;jiggle=2;curveFitting=1;fontFamily=Architects Daughter;fontSource=https%3A%2F%2Ffonts.googleapis.com%2Fcss%3Ffamily%3DArchitects%2BDaughter;opacity=30;fontColor=#333333;" parent="1" vertex="1">
                    <mxGeometry x="832.48" y="1535" width="50.27" height="39" as="geometry"/>
                </mxCell>
                <mxCell id="392" value="Serie" style="shape=ext;margin=3;double=1;whiteSpace=wrap;html=1;align=center;sketch=0;hachureGap=4;jiggle=2;curveFitting=1;strokeWidth=2;fontFamily=Verdana;fontSize=20;fontColor=#333333;fillColor=#f5f5f5;strokeColor=#666666;" parent="1" vertex="1">
                    <mxGeometry x="616.25" y="1649" width="100" height="40" as="geometry"/>
                </mxCell>
                <mxCell id="393" value="&lt;font face=&quot;Verdana&quot;&gt;Fecha&lt;/font&gt;" style="whiteSpace=wrap;html=1;align=center;sketch=0;hachureGap=4;jiggle=2;curveFitting=1;fontFamily=Architects Daughter;fontSource=https%3A%2F%2Ffonts.googleapis.com%2Fcss%3Ffamily%3DArchitects%2BDaughter;fontSize=20;fillColor=#f5f5f5;fontColor=#333333;strokeColor=#666666;" parent="1" vertex="1">
                    <mxGeometry x="839.25" y="1653" width="100" height="40" as="geometry"/>
                </mxCell>
                <mxCell id="399" value="" style="endArrow=none;html=1;rounded=0;sketch=0;hachureGap=4;jiggle=2;curveFitting=1;strokeColor=#030303;fontFamily=Architects Daughter;fontSource=https%3A%2F%2Ffonts.googleapis.com%2Fcss%3Ffamily%3DArchitects%2BDaughter;fontSize=16;fontColor=#000000;exitX=1;exitY=0.5;exitDx=0;exitDy=0;entryX=0;entryY=1;entryDx=0;entryDy=0;" parent="1" source="392" target="382" edge="1">
                    <mxGeometry relative="1" as="geometry">
                        <mxPoint x="646.25" y="1611.56" as="sourcePoint"/>
                        <mxPoint x="701.75" y="1607" as="targetPoint"/>
                    </mxGeometry>
                </mxCell>
                <mxCell id="400" value="" style="resizable=0;html=1;align=right;verticalAlign=bottom;sketch=0;hachureGap=4;jiggle=2;curveFitting=1;fontFamily=Architects Daughter;fontSource=https%3A%2F%2Ffonts.googleapis.com%2Fcss%3Ffamily%3DArchitects%2BDaughter;fontSize=20;fontColor=#000000;fillColor=#1D1D1D;" parent="399" connectable="0" vertex="1">
                    <mxGeometry x="1" relative="1" as="geometry"/>
                </mxCell>
                <mxCell id="401" value="1,1" style="text;html=1;align=center;verticalAlign=middle;resizable=0;points=[];autosize=1;strokeColor=none;fillColor=none;fontSize=20;fontFamily=Verdana;fontColor=#000000;sketch=1;hachureGap=4;jiggle=2;curveFitting=1;fontSource=https%3A%2F%2Ffonts.googleapis.com%2Fcss%3Ffamily%3DArchitects%2BDaughter;" parent="1" vertex="1">
                    <mxGeometry x="716.75" y="1647" width="43" height="36" as="geometry"/>
                </mxCell>
                <mxCell id="404" value="" style="resizable=0;html=1;align=left;verticalAlign=bottom;sketch=0;hachureGap=4;jiggle=2;curveFitting=1;fontFamily=Architects Daughter;fontSource=https%3A%2F%2Ffonts.googleapis.com%2Fcss%3Ffamily%3DArchitects%2BDaughter;fontSize=20;fontColor=#000000;fillColor=#1D1D1D;" parent="1" connectable="0" vertex="1">
                    <mxGeometry x="916.2500000000001" y="1611.0000000000002" as="geometry"/>
                </mxCell>
                <mxCell id="405" value="" style="endArrow=none;html=1;rounded=0;sketch=0;hachureGap=4;jiggle=2;curveFitting=1;strokeColor=#030303;fontFamily=Architects Daughter;fontSource=https%3A%2F%2Ffonts.googleapis.com%2Fcss%3Ffamily%3DArchitects%2BDaughter;fontSize=16;fontColor=#000000;exitX=1;exitY=1;exitDx=0;exitDy=0;entryX=0;entryY=0.5;entryDx=0;entryDy=0;" parent="1" source="382" target="393" edge="1">
                    <mxGeometry relative="1" as="geometry">
                        <mxPoint x="841.75" y="1611.4999999999998" as="sourcePoint"/>
                        <mxPoint x="916.75" y="1611.4999999999998" as="targetPoint"/>
                    </mxGeometry>
                </mxCell>
                <mxCell id="406" value="" style="resizable=0;html=1;align=right;verticalAlign=bottom;sketch=0;hachureGap=4;jiggle=2;curveFitting=1;fontFamily=Architects Daughter;fontSource=https%3A%2F%2Ffonts.googleapis.com%2Fcss%3Ffamily%3DArchitects%2BDaughter;fontSize=20;fontColor=#000000;fillColor=#1D1D1D;" parent="405" connectable="0" vertex="1">
                    <mxGeometry x="1" relative="1" as="geometry"/>
                </mxCell>
                <mxCell id="407" value="1,*" style="text;html=1;align=center;verticalAlign=middle;resizable=0;points=[];autosize=1;strokeColor=none;fillColor=none;fontSize=20;fontFamily=Verdana;fontColor=#000000;sketch=1;hachureGap=4;jiggle=2;curveFitting=1;fontSource=https%3A%2F%2Ffonts.googleapis.com%2Fcss%3Ffamily%3DArchitects%2BDaughter;" parent="1" vertex="1">
                    <mxGeometry x="796.25" y="1649" width="43" height="36" as="geometry"/>
                </mxCell>
                <mxCell id="408" value="1,*" style="text;html=1;align=center;verticalAlign=middle;resizable=0;points=[];autosize=1;strokeColor=none;fillColor=none;fontSize=20;fontFamily=Verdana;fontColor=#000000;sketch=1;hachureGap=4;jiggle=2;curveFitting=1;fontSource=https%3A%2F%2Ffonts.googleapis.com%2Fcss%3Ffamily%3DArchitects%2BDaughter;" parent="1" vertex="1">
                    <mxGeometry x="711.75" y="1565" width="43" height="36" as="geometry"/>
                </mxCell>
                <mxCell id="409" value="1,*" style="text;html=1;align=center;verticalAlign=middle;resizable=0;points=[];autosize=1;strokeColor=none;fillColor=none;fontSize=20;fontFamily=Verdana;fontColor=#000000;sketch=1;hachureGap=4;jiggle=2;curveFitting=1;fontSource=https%3A%2F%2Ffonts.googleapis.com%2Fcss%3Ffamily%3DArchitects%2BDaughter;" parent="1" vertex="1">
                    <mxGeometry x="798.75" y="1565" width="43" height="36" as="geometry"/>
                </mxCell>
                <mxCell id="420" value="&lt;font face=&quot;Verdana&quot;&gt;Efectividad&lt;/font&gt;" style="ellipse;whiteSpace=wrap;html=1;align=center;sketch=0;hachureGap=4;jiggle=2;curveFitting=1;fontFamily=Architects Daughter;fontSource=https%3A%2F%2Ffonts.googleapis.com%2Fcss%3Ffamily%3DArchitects%2BDaughter;fontSize=20;fillColor=#f5f5f5;fontColor=#333333;strokeColor=#666666;" parent="1" vertex="1">
                    <mxGeometry x="496.5" y="1068.62" width="119" height="49" as="geometry"/>
                </mxCell>
                <mxCell id="424" value="&lt;u&gt;CI&lt;/u&gt;" style="ellipse;whiteSpace=wrap;html=1;align=center;dashed=1;sketch=0;hachureGap=4;jiggle=2;curveFitting=1;strokeWidth=2;fontFamily=Verdana;fontSize=20;fontColor=#333333;fillColor=#f5f5f5;strokeColor=#666666;" parent="1" vertex="1">
                    <mxGeometry x="324.75" y="1073.62" width="100" height="40" as="geometry"/>
                </mxCell>
                <mxCell id="425" value="&lt;u&gt;P-ID&lt;/u&gt;" style="ellipse;whiteSpace=wrap;html=1;align=center;dashed=1;sketch=0;hachureGap=4;jiggle=2;curveFitting=1;strokeWidth=2;fontFamily=Verdana;fontSize=20;fontColor=#333333;fillColor=#f5f5f5;strokeColor=#666666;" parent="1" vertex="1">
                    <mxGeometry x="179.25" y="1071.62" width="100" height="40" as="geometry"/>
                </mxCell>
                <mxCell id="426" value="" style="endArrow=none;html=1;rounded=0;hachureGap=4;fontFamily=Architects Daughter;fontSource=https%3A%2F%2Ffonts.googleapis.com%2Fcss%3Ffamily%3DArchitects%2BDaughter;fontSize=16;exitX=0.5;exitY=1;exitDx=0;exitDy=0;strokeColor=#030303;entryX=0.184;entryY=0.001;entryDx=0;entryDy=0;entryPerimeter=0;" parent="1" source="425" edge="1">
                    <mxGeometry relative="1" as="geometry">
                        <mxPoint x="230.24999999999977" y="1111.62" as="sourcePoint"/>
                        <mxPoint x="229.51967999999988" y="1133.8110000000001" as="targetPoint"/>
                    </mxGeometry>
                </mxCell>
                <mxCell id="427" value="" style="endArrow=none;html=1;rounded=0;hachureGap=4;fontFamily=Architects Daughter;fontSource=https%3A%2F%2Ffonts.googleapis.com%2Fcss%3Ffamily%3DArchitects%2BDaughter;fontSize=16;exitX=0.5;exitY=1;exitDx=0;exitDy=0;strokeColor=#030303;entryX=0.474;entryY=0.002;entryDx=0;entryDy=0;entryPerimeter=0;" parent="1" source="424" edge="1">
                    <mxGeometry relative="1" as="geometry">
                        <mxPoint x="375.75" y="1113.62" as="sourcePoint"/>
                        <mxPoint x="374.9604800000002" y="1134.002" as="targetPoint"/>
                    </mxGeometry>
                </mxCell>
                <mxCell id="428" value="" style="endArrow=none;html=1;rounded=0;hachureGap=4;fontFamily=Architects Daughter;fontSource=https%3A%2F%2Ffonts.googleapis.com%2Fcss%3Ffamily%3DArchitects%2BDaughter;fontSize=16;strokeColor=#030303;entryX=0.75;entryY=0;entryDx=0;entryDy=0;exitX=0.5;exitY=1;exitDx=0;exitDy=0;" parent="1" source="420" target="298" edge="1">
                    <mxGeometry relative="1" as="geometry">
                        <mxPoint x="553" y="1116" as="sourcePoint"/>
                        <mxPoint x="555.2104800000002" y="1138.002" as="targetPoint"/>
                    </mxGeometry>
                </mxCell>
                <mxCell id="433" value="&lt;u&gt;CI&lt;/u&gt;" style="ellipse;whiteSpace=wrap;html=1;align=center;dashed=1;sketch=0;hachureGap=4;jiggle=2;curveFitting=1;strokeWidth=2;fontFamily=Verdana;fontSize=20;fontColor=#333333;fillColor=#f5f5f5;strokeColor=#666666;" parent="1" vertex="1">
                    <mxGeometry x="1272.5" y="1098.62" width="100" height="40" as="geometry"/>
                </mxCell>
                <mxCell id="434" value="P-ID2" style="ellipse;whiteSpace=wrap;html=1;align=center;dashed=1;sketch=0;hachureGap=4;jiggle=2;curveFitting=1;strokeWidth=2;fontFamily=Verdana;fontSize=20;fontColor=#333333;fillColor=#f5f5f5;strokeColor=#666666;" parent="1" vertex="1">
                    <mxGeometry x="1127" y="1096.62" width="100" height="40" as="geometry"/>
                </mxCell>
                <mxCell id="435" value="" style="endArrow=none;html=1;rounded=0;hachureGap=4;fontFamily=Architects Daughter;fontSource=https%3A%2F%2Ffonts.googleapis.com%2Fcss%3Ffamily%3DArchitects%2BDaughter;fontSize=16;exitX=0.5;exitY=1;exitDx=0;exitDy=0;strokeColor=#030303;entryX=0.184;entryY=0.001;entryDx=0;entryDy=0;entryPerimeter=0;" parent="1" source="434" edge="1">
                    <mxGeometry relative="1" as="geometry">
                        <mxPoint x="1177.9999999999998" y="1136.62" as="sourcePoint"/>
                        <mxPoint x="1177.2696799999999" y="1158.8110000000001" as="targetPoint"/>
                    </mxGeometry>
                </mxCell>
                <mxCell id="436" value="" style="endArrow=none;html=1;rounded=0;hachureGap=4;fontFamily=Architects Daughter;fontSource=https%3A%2F%2Ffonts.googleapis.com%2Fcss%3Ffamily%3DArchitects%2BDaughter;fontSize=16;exitX=0.5;exitY=1;exitDx=0;exitDy=0;strokeColor=#030303;entryX=0.474;entryY=0.002;entryDx=0;entryDy=0;entryPerimeter=0;" parent="1" source="433" edge="1">
                    <mxGeometry relative="1" as="geometry">
                        <mxPoint x="1323.5" y="1138.62" as="sourcePoint"/>
                        <mxPoint x="1322.7104800000004" y="1159.002" as="targetPoint"/>
                    </mxGeometry>
                </mxCell>
                <mxCell id="437" value="&lt;u&gt;P-ID1&lt;/u&gt;" style="ellipse;whiteSpace=wrap;html=1;align=center;dashed=1;sketch=0;hachureGap=4;jiggle=2;curveFitting=1;strokeWidth=2;fontFamily=Verdana;fontSize=20;fontColor=#333333;fillColor=#f5f5f5;strokeColor=#666666;" parent="1" vertex="1">
                    <mxGeometry x="985" y="1098.62" width="100" height="40" as="geometry"/>
                </mxCell>
                <mxCell id="438" value="" style="endArrow=none;html=1;rounded=0;hachureGap=4;fontFamily=Architects Daughter;fontSource=https%3A%2F%2Ffonts.googleapis.com%2Fcss%3Ffamily%3DArchitects%2BDaughter;fontSize=16;exitX=0.5;exitY=1;exitDx=0;exitDy=0;strokeColor=#030303;entryX=0.184;entryY=0.001;entryDx=0;entryDy=0;entryPerimeter=0;" parent="1" source="437" edge="1">
                    <mxGeometry relative="1" as="geometry">
                        <mxPoint x="1035.9999999999998" y="1138.62" as="sourcePoint"/>
                        <mxPoint x="1035.2696799999999" y="1160.8110000000001" as="targetPoint"/>
                    </mxGeometry>
                </mxCell>
                <mxCell id="440" value="&lt;u&gt;E-ID&lt;/u&gt;" style="ellipse;whiteSpace=wrap;html=1;align=center;dashed=1;sketch=0;hachureGap=4;jiggle=2;curveFitting=1;strokeWidth=2;fontFamily=Verdana;fontSize=20;fontColor=#333333;fillColor=#f5f5f5;strokeColor=#666666;" parent="1" vertex="1">
                    <mxGeometry x="298" y="1532" width="100" height="40" as="geometry"/>
                </mxCell>
                <mxCell id="441" value="&lt;font face=&quot;Verdana&quot;&gt;AI-ID&lt;/font&gt;" style="ellipse;whiteSpace=wrap;html=1;align=center;fontStyle=4;sketch=0;hachureGap=4;jiggle=2;curveFitting=1;fontFamily=Architects Daughter;fontSource=https%3A%2F%2Ffonts.googleapis.com%2Fcss%3Ffamily%3DArchitects%2BDaughter;fontSize=20;fillColor=#f5f5f5;fontColor=#333333;strokeColor=#666666;" parent="1" vertex="1">
                    <mxGeometry x="416" y="1535" width="100" height="40" as="geometry"/>
                </mxCell>
                <mxCell id="443" value="" style="endArrow=none;html=1;rounded=0;hachureGap=4;fontFamily=Architects Daughter;fontSource=https%3A%2F%2Ffonts.googleapis.com%2Fcss%3Ffamily%3DArchitects%2BDaughter;fontSize=16;exitX=0.5;exitY=0;exitDx=0;exitDy=0;strokeColor=#030303;entryX=0.25;entryY=1;entryDx=0;entryDy=0;" parent="1" source="440" target="345" edge="1">
                    <mxGeometry relative="1" as="geometry">
                        <mxPoint x="420.25" y="1384" as="sourcePoint"/>
                        <mxPoint x="420.5" y="1313" as="targetPoint"/>
                    </mxGeometry>
                </mxCell>
                <mxCell id="444" value="" style="endArrow=none;html=1;rounded=0;hachureGap=4;fontFamily=Architects Daughter;fontSource=https%3A%2F%2Ffonts.googleapis.com%2Fcss%3Ffamily%3DArchitects%2BDaughter;fontSize=16;exitX=0.5;exitY=0;exitDx=0;exitDy=0;strokeColor=#030303;entryX=0.75;entryY=1;entryDx=0;entryDy=0;" parent="1" source="441" target="345" edge="1">
                    <mxGeometry relative="1" as="geometry">
                        <mxPoint x="511.5" y="1462" as="sourcePoint"/>
                        <mxPoint x="511.75" y="1391" as="targetPoint"/>
                    </mxGeometry>
                </mxCell>
                <mxCell id="445" value="&lt;font face=&quot;Verdana&quot;&gt;EC-ID&lt;/font&gt;" style="ellipse;whiteSpace=wrap;html=1;align=center;fontStyle=4;sketch=0;hachureGap=4;jiggle=2;curveFitting=1;fontFamily=Architects Daughter;fontSource=https%3A%2F%2Ffonts.googleapis.com%2Fcss%3Ffamily%3DArchitects%2BDaughter;fontSize=20;fillColor=#f5f5f5;fontColor=#333333;strokeColor=#666666;" parent="1" vertex="1">
                    <mxGeometry x="727.75" y="1414" width="100" height="40" as="geometry"/>
                </mxCell>
                <mxCell id="446" value="&lt;font face=&quot;Verdana&quot;&gt;F-ID&lt;/font&gt;" style="ellipse;whiteSpace=wrap;html=1;align=center;fontStyle=4;sketch=0;hachureGap=4;jiggle=2;curveFitting=1;fontFamily=Architects Daughter;fontSource=https%3A%2F%2Ffonts.googleapis.com%2Fcss%3Ffamily%3DArchitects%2BDaughter;fontSize=20;fillColor=#f5f5f5;fontColor=#333333;strokeColor=#666666;" parent="1" vertex="1">
                    <mxGeometry x="922" y="1700" width="100" height="40" as="geometry"/>
                </mxCell>
                <mxCell id="447" value="" style="endArrow=none;html=1;rounded=0;hachureGap=4;fontFamily=Architects Daughter;fontSource=https%3A%2F%2Ffonts.googleapis.com%2Fcss%3Ffamily%3DArchitects%2BDaughter;fontSize=16;exitX=0.5;exitY=0;exitDx=0;exitDy=0;strokeColor=#030303;entryX=0.5;entryY=1;entryDx=0;entryDy=0;" parent="1" source="370" target="445" edge="1">
                    <mxGeometry relative="1" as="geometry">
                        <mxPoint x="1196.2500000000002" y="1380.0000000000002" as="sourcePoint"/>
                        <mxPoint x="1196" y="1320.9999999999998" as="targetPoint"/>
                    </mxGeometry>
                </mxCell>
                <mxCell id="448" value="" style="shape=trapezoid;perimeter=trapezoidPerimeter;whiteSpace=wrap;html=1;fixedSize=1;shadow=0;sketch=0;hachureGap=4;jiggle=2;curveFitting=1;strokeColor=#1A1A1A;fontFamily=Verdana;fontSize=17;fillColor=none;gradientColor=none;opacity=30;size=219.91666666666686;" parent="1" vertex="1">
                    <mxGeometry x="509.75" y="1403" width="546" height="356" as="geometry"/>
                </mxCell>
                <mxCell id="449" value="" style="endArrow=none;html=1;rounded=0;sketch=0;hachureGap=4;jiggle=2;curveFitting=1;strokeColor=#030303;fontFamily=Architects Daughter;fontSource=https%3A%2F%2Ffonts.googleapis.com%2Fcss%3Ffamily%3DArchitects%2BDaughter;fontSize=16;fontColor=#000000;entryX=0;entryY=0;entryDx=0;entryDy=0;exitX=0.832;exitY=1.045;exitDx=0;exitDy=0;exitPerimeter=0;" parent="1" source="393" target="446" edge="1">
                    <mxGeometry relative="1" as="geometry">
                        <mxPoint x="915" y="1688" as="sourcePoint"/>
                        <mxPoint x="849.25" y="1683" as="targetPoint"/>
                    </mxGeometry>
                </mxCell>
                <mxCell id="450" value="" style="resizable=0;html=1;align=right;verticalAlign=bottom;sketch=0;hachureGap=4;jiggle=2;curveFitting=1;fontFamily=Architects Daughter;fontSource=https%3A%2F%2Ffonts.googleapis.com%2Fcss%3Ffamily%3DArchitects%2BDaughter;fontSize=20;fontColor=#000000;fillColor=#1D1D1D;" parent="449" connectable="0" vertex="1">
                    <mxGeometry x="1" relative="1" as="geometry"/>
                </mxCell>
                <mxCell id="451" value="&lt;font face=&quot;Verdana&quot;&gt;Juego&lt;/font&gt;" style="text;strokeColor=none;fillColor=none;html=1;fontSize=24;fontStyle=1;verticalAlign=middle;align=center;shadow=0;sketch=0;hachureGap=4;jiggle=2;curveFitting=1;fontFamily=Architects Daughter;fontSource=https%3A%2F%2Ffonts.googleapis.com%2Fcss%3Ffamily%3DArchitects%2BDaughter;opacity=30;fontColor=#333333;" parent="1" vertex="1">
                    <mxGeometry x="676.98" y="1710" width="152.77" height="40" as="geometry"/>
                </mxCell>
                <mxCell id="452" value="&lt;font face=&quot;Verdana&quot;&gt;CJ-ID&lt;/font&gt;" style="ellipse;whiteSpace=wrap;html=1;align=center;fontStyle=4;sketch=0;hachureGap=4;jiggle=2;curveFitting=1;fontFamily=Architects Daughter;fontSource=https%3A%2F%2Ffonts.googleapis.com%2Fcss%3Ffamily%3DArchitects%2BDaughter;fontSize=20;fillColor=#f5f5f5;fontColor=#333333;strokeColor=#666666;" parent="1" vertex="1">
                    <mxGeometry x="1136" y="1529" width="100" height="40" as="geometry"/>
                </mxCell>
                <mxCell id="453" value="" style="endArrow=none;html=1;rounded=0;hachureGap=4;fontFamily=Architects Daughter;fontSource=https%3A%2F%2Ffonts.googleapis.com%2Fcss%3Ffamily%3DArchitects%2BDaughter;fontSize=16;entryX=0.5;entryY=1;entryDx=0;entryDy=0;strokeColor=#030303;" parent="1" source="452" target="339" edge="1">
                    <mxGeometry relative="1" as="geometry">
                        <mxPoint x="1196.75" y="1483.69" as="sourcePoint"/>
                        <mxPoint x="1196.25" y="1435" as="targetPoint"/>
                    </mxGeometry>
                </mxCell>
                <mxCell id="455" value="&lt;u&gt;EC-ID1&lt;/u&gt;" style="ellipse;whiteSpace=wrap;html=1;align=center;dashed=1;sketch=0;hachureGap=4;jiggle=2;curveFitting=1;strokeWidth=2;fontFamily=Verdana;fontSize=20;fontColor=#333333;fillColor=#f5f5f5;strokeColor=#666666;" parent="1" vertex="1">
                    <mxGeometry x="509.75000000000006" y="1771" width="100" height="40" as="geometry"/>
                </mxCell>
                <mxCell id="456" value="EC-ID2" style="ellipse;whiteSpace=wrap;html=1;align=center;dashed=1;sketch=0;hachureGap=4;jiggle=2;curveFitting=1;strokeWidth=2;fontFamily=Verdana;fontSize=20;fontColor=#333333;fillColor=#f5f5f5;strokeColor=#666666;" parent="1" vertex="1">
                    <mxGeometry x="619" y="1771" width="100" height="40" as="geometry"/>
                </mxCell>
                <mxCell id="458" value="&lt;u&gt;T-ID&lt;/u&gt;" style="ellipse;whiteSpace=wrap;html=1;align=center;dashed=1;sketch=0;hachureGap=4;jiggle=2;curveFitting=1;strokeWidth=2;fontFamily=Verdana;fontSize=20;fontColor=#333333;fillColor=#f5f5f5;strokeColor=#666666;" parent="1" vertex="1">
                    <mxGeometry x="725.63" y="1771" width="100" height="40" as="geometry"/>
                </mxCell>
                <mxCell id="459" value="&lt;u&gt;S-ID&lt;/u&gt;" style="ellipse;whiteSpace=wrap;html=1;align=center;dashed=1;sketch=0;hachureGap=4;jiggle=2;curveFitting=1;strokeWidth=2;fontFamily=Verdana;fontSize=20;fontColor=#333333;fillColor=#f5f5f5;strokeColor=#666666;" parent="1" vertex="1">
                    <mxGeometry x="836.38" y="1771" width="100" height="40" as="geometry"/>
                </mxCell>
                <mxCell id="460" value="&lt;u&gt;F-ID&lt;/u&gt;" style="ellipse;whiteSpace=wrap;html=1;align=center;dashed=1;sketch=0;hachureGap=4;jiggle=2;curveFitting=1;strokeWidth=2;fontFamily=Verdana;fontSize=20;fontColor=#333333;fillColor=#f5f5f5;strokeColor=#666666;" parent="1" vertex="1">
                    <mxGeometry x="942.38" y="1769" width="100" height="40" as="geometry"/>
                </mxCell>
                <mxCell id="461" value="" style="endArrow=none;html=1;rounded=0;hachureGap=4;fontFamily=Architects Daughter;fontSource=https%3A%2F%2Ffonts.googleapis.com%2Fcss%3Ffamily%3DArchitects%2BDaughter;fontSize=16;entryX=0.5;entryY=0;entryDx=0;entryDy=0;strokeColor=#030303;exitX=0.092;exitY=1.001;exitDx=0;exitDy=0;exitPerimeter=0;" parent="1" source="448" target="455" edge="1">
                    <mxGeometry relative="1" as="geometry">
                        <mxPoint x="510" y="1735" as="sourcePoint"/>
                        <mxPoint x="420.25" y="1443" as="targetPoint"/>
                    </mxGeometry>
                </mxCell>
                <mxCell id="462" value="" style="endArrow=none;html=1;rounded=0;hachureGap=4;fontFamily=Architects Daughter;fontSource=https%3A%2F%2Ffonts.googleapis.com%2Fcss%3Ffamily%3DArchitects%2BDaughter;fontSize=16;entryX=0.5;entryY=0;entryDx=0;entryDy=0;strokeColor=#030303;exitX=0.092;exitY=1.001;exitDx=0;exitDy=0;exitPerimeter=0;" parent="1" edge="1">
                    <mxGeometry relative="1" as="geometry">
                        <mxPoint x="669.0219999999999" y="1758.356" as="sourcePoint"/>
                        <mxPoint x="668.79" y="1770" as="targetPoint"/>
                    </mxGeometry>
                </mxCell>
                <mxCell id="463" value="" style="endArrow=none;html=1;rounded=0;hachureGap=4;fontFamily=Architects Daughter;fontSource=https%3A%2F%2Ffonts.googleapis.com%2Fcss%3Ffamily%3DArchitects%2BDaughter;fontSize=16;entryX=0.5;entryY=0;entryDx=0;entryDy=0;strokeColor=#030303;" parent="1" target="458" edge="1">
                    <mxGeometry relative="1" as="geometry">
                        <mxPoint x="776" y="1757" as="sourcePoint"/>
                        <mxPoint x="579.75" y="1791" as="targetPoint"/>
                    </mxGeometry>
                </mxCell>
                <mxCell id="464" value="" style="endArrow=none;html=1;rounded=0;hachureGap=4;fontFamily=Architects Daughter;fontSource=https%3A%2F%2Ffonts.googleapis.com%2Fcss%3Ffamily%3DArchitects%2BDaughter;fontSize=16;entryX=0.5;entryY=0;entryDx=0;entryDy=0;strokeColor=#030303;exitX=0.69;exitY=1.002;exitDx=0;exitDy=0;exitPerimeter=0;" parent="1" source="448" target="459" edge="1">
                    <mxGeometry relative="1" as="geometry">
                        <mxPoint x="786" y="1766.9999999999998" as="sourcePoint"/>
                        <mxPoint x="785.6299999999999" y="1781" as="targetPoint"/>
                    </mxGeometry>
                </mxCell>
                <mxCell id="465" value="" style="endArrow=none;html=1;rounded=0;hachureGap=4;fontFamily=Architects Daughter;fontSource=https%3A%2F%2Ffonts.googleapis.com%2Fcss%3Ffamily%3DArchitects%2BDaughter;fontSize=16;entryX=0.5;entryY=0;entryDx=0;entryDy=0;strokeColor=#030303;exitX=0.883;exitY=1;exitDx=0;exitDy=0;exitPerimeter=0;" parent="1" source="448" target="460" edge="1">
                    <mxGeometry relative="1" as="geometry">
                        <mxPoint x="896.4899999999998" y="1769.712" as="sourcePoint"/>
                        <mxPoint x="896.3800000000001" y="1781" as="targetPoint"/>
                    </mxGeometry>
                </mxCell>
                <mxCell id="466" value="&lt;u&gt;P-ID&lt;/u&gt;" style="ellipse;whiteSpace=wrap;html=1;align=center;dashed=1;sketch=0;hachureGap=4;jiggle=2;curveFitting=1;strokeWidth=2;fontFamily=Verdana;fontSize=20;fontColor=#333333;fillColor=#f5f5f5;strokeColor=#666666;" parent="1" vertex="1">
                    <mxGeometry x="547" y="665" width="100" height="40" as="geometry"/>
                </mxCell>
                <mxCell id="467" value="&lt;u&gt;CI&lt;/u&gt;" style="ellipse;whiteSpace=wrap;html=1;align=center;dashed=1;sketch=0;hachureGap=4;jiggle=2;curveFitting=1;strokeWidth=2;fontFamily=Verdana;fontSize=20;fontColor=#333333;fillColor=#f5f5f5;strokeColor=#666666;" parent="1" vertex="1">
                    <mxGeometry x="662.5" y="666" width="100" height="40" as="geometry"/>
                </mxCell>
                <mxCell id="468" value="&lt;u&gt;T-ID&lt;/u&gt;" style="ellipse;whiteSpace=wrap;html=1;align=center;dashed=1;sketch=0;hachureGap=4;jiggle=2;curveFitting=1;strokeWidth=2;fontFamily=Verdana;fontSize=20;fontColor=#333333;fillColor=#f5f5f5;strokeColor=#666666;" parent="1" vertex="1">
                    <mxGeometry x="778.25" y="663" width="100" height="40" as="geometry"/>
                </mxCell>
                <mxCell id="469" value="&lt;u&gt;S-ID&lt;/u&gt;" style="ellipse;whiteSpace=wrap;html=1;align=center;dashed=1;sketch=0;hachureGap=4;jiggle=2;curveFitting=1;strokeWidth=2;fontFamily=Verdana;fontSize=20;fontColor=#333333;fillColor=#f5f5f5;strokeColor=#666666;" parent="1" vertex="1">
                    <mxGeometry x="889" y="663" width="100" height="40" as="geometry"/>
                </mxCell>
                <mxCell id="470" value="" style="endArrow=none;html=1;rounded=0;hachureGap=4;fontFamily=Architects Daughter;fontSource=https%3A%2F%2Ffonts.googleapis.com%2Fcss%3Ffamily%3DArchitects%2BDaughter;fontSize=16;entryX=0.5;entryY=1;entryDx=0;entryDy=0;exitX=0.822;exitY=0.002;exitDx=0;exitDy=0;strokeColor=#030303;exitPerimeter=0;" parent="1" source="278" target="469" edge="1">
                    <mxGeometry relative="1" as="geometry">
                        <mxPoint x="959.23" y="798.9999999999999" as="sourcePoint"/>
                        <mxPoint x="958.5" y="783" as="targetPoint"/>
                    </mxGeometry>
                </mxCell>
                <mxCell id="471" value="" style="endArrow=none;html=1;rounded=0;hachureGap=4;fontFamily=Architects Daughter;fontSource=https%3A%2F%2Ffonts.googleapis.com%2Fcss%3Ffamily%3DArchitects%2BDaughter;fontSize=16;entryX=0.5;entryY=1;entryDx=0;entryDy=0;exitX=0.634;exitY=0.005;exitDx=0;exitDy=0;strokeColor=#030303;exitPerimeter=0;" parent="1" source="278" target="468" edge="1">
                    <mxGeometry relative="1" as="geometry">
                        <mxPoint x="949.268" y="728.566" as="sourcePoint"/>
                        <mxPoint x="949" y="713" as="targetPoint"/>
                    </mxGeometry>
                </mxCell>
                <mxCell id="472" value="" style="endArrow=none;html=1;rounded=0;hachureGap=4;fontFamily=Architects Daughter;fontSource=https%3A%2F%2Ffonts.googleapis.com%2Fcss%3Ffamily%3DArchitects%2BDaughter;fontSize=16;entryX=0.5;entryY=1;entryDx=0;entryDy=0;exitX=0.44;exitY=-0.001;exitDx=0;exitDy=0;strokeColor=#030303;exitPerimeter=0;" parent="1" source="278" target="467" edge="1">
                    <mxGeometry relative="1" as="geometry">
                        <mxPoint x="837.596" y="729.415" as="sourcePoint"/>
                        <mxPoint x="838.25" y="713" as="targetPoint"/>
                    </mxGeometry>
                </mxCell>
                <mxCell id="473" value="" style="endArrow=none;html=1;rounded=0;hachureGap=4;fontFamily=Architects Daughter;fontSource=https%3A%2F%2Ffonts.googleapis.com%2Fcss%3Ffamily%3DArchitects%2BDaughter;fontSize=16;entryX=0.477;entryY=0.974;entryDx=0;entryDy=0;exitX=0.24;exitY=0.002;exitDx=0;exitDy=0;strokeColor=#030303;exitPerimeter=0;entryPerimeter=0;" parent="1" source="278" target="466" edge="1">
                    <mxGeometry relative="1" as="geometry">
                        <mxPoint x="722.3599999999999" y="727.7170000000001" as="sourcePoint"/>
                        <mxPoint x="722.5000000000001" y="716" as="targetPoint"/>
                    </mxGeometry>
                </mxCell>
            </root>
        </mxGraphModel>
    </diagram>
</mxfile>